<svg width="647" height="372" viewBox="0 0 647 372" fill="none" xmlns="http://www.w3.org/2000/svg">
<g clip-path="url(#clip0_197_2244)">
<path d="M11.2887 111.487C9.83115 111.944 8.27902 112.008 6.78867 111.674C5.29833 111.339 3.92241 110.618 2.79953 109.583C1.67665 108.547 0.846461 107.234 0.39259 105.776C-0.0612808 104.317 -0.122805 102.765 0.21422 101.275C5.27097 80.2378 24.4991 28.7905 94.5479 7.15181C124.891 -2.22131 153.989 -2.38132 181.001 6.67269C203.222 14.0903 217.974 25.698 225.03 31.3084C226.823 32.7268 227.979 34.7993 228.244 37.07C228.508 39.3407 227.86 41.6236 226.442 43.4164C226.424 43.4386 226.406 43.4608 226.389 43.4828C224.932 45.2811 222.827 46.4352 220.528 46.6962C218.228 46.9572 215.918 46.3043 214.096 44.8782C201.311 34.8051 162.515 4.20332 99.6372 23.6269C38.2408 42.5928 21.5631 86.9552 17.2373 105.105C16.9088 106.605 16.1834 107.988 15.1369 109.111C14.0903 110.233 12.7613 111.054 11.2888 111.487L11.2887 111.487Z" fill="#6C63FF"/>
<path d="M202.213 230.644C201.518 230.869 200.796 231.005 200.066 231.048C145.342 233.995 110.524 188.532 109.094 186.636L108.829 186.199C107.957 184.845 86.8893 152.792 96.1639 127.335C100.424 115.697 109.845 107.529 124.246 103.08C137.64 98.9427 148.599 100.166 157.928 106.828C165.577 112.255 170.479 120.349 175.23 128.164C185.112 144.392 191.168 152.649 209.951 147.885C218.199 145.792 222.049 139.344 223.809 134.321C228.545 120.653 224.347 102.02 213.241 87.9232C198.892 69.6343 158.738 39.2575 109.194 54.562C88.0369 61.0976 70.7222 73.9767 59.127 91.7107C49.5212 106.428 43.9369 124.707 43.8145 141.754C43.6218 173.493 69.6342 215.25 69.8809 215.628C70.4799 216.586 70.8842 217.653 71.071 218.767C71.2577 219.881 71.2232 221.021 70.9693 222.122C70.7154 223.223 70.2472 224.264 69.5913 225.183C68.9354 226.103 68.1048 226.885 67.1468 227.484C67.1202 227.501 67.0936 227.517 67.0668 227.534C65.104 228.758 62.7385 229.161 60.4811 228.656C58.2238 228.15 56.2557 226.778 55.0019 224.834C53.8278 222.924 26.052 178.401 26.2758 141.718C26.5873 101.957 50.7495 54.5038 104.086 38.0276C128.74 30.4119 154.648 31.6919 179.029 41.6883C197.926 49.4835 215.415 62.3879 226.978 77.1229C241.747 95.9312 246.95 120.551 240.227 139.766C235.745 152.576 226.465 161.415 214.133 164.575C181.993 172.751 169.402 152.167 160.219 137.151C150.79 121.757 145.574 114.539 129.276 119.573C120.328 122.338 114.815 126.767 112.496 133.131C109.341 141.831 112.331 152.982 115.395 160.8C115.427 160.882 115.459 160.963 115.491 161.044C119.419 170.981 125.549 179.897 133.42 187.122C146.029 198.766 169.437 215.366 199.271 213.765C201.552 213.623 203.796 214.394 205.509 215.906C207.222 217.419 208.264 219.55 208.405 221.831C208.407 221.858 208.409 221.886 208.41 221.913C208.48 223.847 207.911 225.75 206.791 227.329C205.671 228.907 204.062 230.072 202.213 230.644L202.213 230.644Z" fill="#6C63FF"/>
<path d="M135.852 246.989C134.711 247.342 133.511 247.46 132.323 247.336C131.136 247.212 129.985 246.848 128.942 246.267C101.951 230.974 83.0035 210.406 69.3592 181.577L69.3043 181.4C60.7051 162.179 55.5285 132.812 66.9471 107.991C75.3769 89.6771 91.2004 76.8042 113.898 69.7927C140.744 61.4997 165.741 67.6054 186.257 87.365C195.587 96.4848 203.175 107.231 208.646 119.075C209.519 121.206 209.517 123.595 208.642 125.725C207.767 127.854 206.088 129.554 203.969 130.456C201.851 131.358 199.462 131.389 197.32 130.544C195.179 129.698 193.456 128.044 192.524 125.938C187.892 116.052 181.495 107.095 173.648 99.5048C157.834 84.4598 139.451 80.0112 118.946 86.3454C101.227 91.8191 89.0252 101.496 82.7791 115.111C73.7716 134.707 78.4092 159.177 85.1386 174.236C97.1695 199.733 113.857 217.819 137.613 231.254C138.594 231.807 139.457 232.549 140.152 233.436C140.847 234.322 141.36 235.337 141.662 236.423C141.965 237.508 142.051 238.642 141.915 239.76C141.779 240.879 141.425 241.96 140.871 242.941C140.849 242.98 140.827 243.018 140.805 243.057C139.698 244.936 137.933 246.337 135.852 246.989Z" fill="#6C63FF"/>
<path d="M138.695 160.807C144.861 160.807 149.86 155.808 149.86 149.642C149.86 143.476 144.861 138.478 138.695 138.478C132.529 138.478 127.53 143.476 127.53 149.642C127.53 155.808 132.529 160.807 138.695 160.807Z" fill="#E6E6E6"/>
<path d="M340.003 285.974C339.773 285.974 339.542 285.956 339.314 285.922C338.723 285.834 338.155 285.63 337.643 285.321C337.131 285.012 336.685 284.605 336.332 284.123L330.199 275.807C329.844 275.327 329.588 274.781 329.444 274.201C329.3 273.621 329.272 273.018 329.362 272.427C329.451 271.836 329.656 271.269 329.964 270.757C330.273 270.246 330.679 269.8 331.16 269.445L383.591 230.776C384.072 230.421 384.618 230.164 385.199 230.021C385.779 229.877 386.381 229.849 386.972 229.938C387.563 230.027 388.13 230.232 388.642 230.541C389.154 230.849 389.6 231.256 389.955 231.737L396.087 240.052C396.803 241.023 397.104 242.239 396.924 243.432C396.744 244.625 396.097 245.698 395.126 246.415L342.695 285.084C341.916 285.662 340.973 285.974 340.003 285.974Z" fill="#6C63FF"/>
<path d="M377.24 254.839L369.215 243.958C368.554 243.062 368.276 241.939 368.443 240.838C368.609 239.736 369.206 238.746 370.103 238.085L400.806 211.183C401.703 210.522 402.825 210.244 403.927 210.41C405.028 210.577 406.018 211.174 406.68 212.07L421.355 229.601C422.016 230.498 422.294 231.62 422.127 232.722C421.961 233.823 421.364 234.813 420.467 235.474L383.113 255.726C382.217 256.387 381.094 256.665 379.993 256.499C378.892 256.332 377.901 255.735 377.24 254.839Z" fill="#2F2E41"/>
<path d="M426.575 371.188H416.244C415.037 371.187 413.881 370.707 413.028 369.854C412.175 369.001 411.695 367.844 411.693 366.638V280.525C411.695 279.318 412.175 278.162 413.028 277.309C413.881 276.456 415.037 275.976 416.244 275.975H426.575C427.781 275.976 428.938 276.456 429.791 277.309C430.644 278.162 431.124 279.318 431.125 280.525V366.638C431.124 367.844 430.644 369.001 429.791 369.854C428.938 370.707 427.781 371.187 426.575 371.188Z" fill="#6C63FF"/>
<path d="M447.01 371.188H436.678C435.472 371.187 434.315 370.707 433.462 369.854C432.609 369.001 432.129 367.844 432.128 366.638V280.525C432.129 279.318 432.609 278.162 433.462 277.309C434.315 276.456 435.472 275.976 436.678 275.975H447.01C448.217 275.976 449.373 276.456 450.226 277.309C451.079 278.162 451.559 279.318 451.56 280.525V366.638C451.559 367.844 451.079 369.001 450.226 369.854C449.373 370.707 448.217 371.187 447.01 371.188Z" fill="#6C63FF"/>
<path d="M543.886 369.857H317.056V371.426H543.886V369.857Z" fill="#3F3D56"/>
<path d="M427.165 174.489C447.856 174.489 464.629 157.716 464.629 137.025C464.629 116.334 447.856 99.5601 427.165 99.5601C406.474 99.5601 389.7 116.334 389.7 137.025C389.7 157.716 406.474 174.489 427.165 174.489Z" fill="#6C63FF"/>
<path d="M485.166 327.033L463.47 230.678V207.912C463.47 206.427 462.88 205.002 461.83 203.952C460.779 202.902 459.355 202.312 457.87 202.312H437.086V187.672C437.086 186.937 436.941 186.208 436.659 185.529C436.378 184.849 435.965 184.232 435.445 183.712C434.925 183.192 434.308 182.779 433.629 182.498C432.949 182.217 432.221 182.072 431.486 182.072H420.285C419.55 182.072 418.821 182.217 418.142 182.498C417.463 182.779 416.845 183.192 416.325 183.712C415.805 184.232 415.393 184.849 415.111 185.529C414.83 186.208 414.685 186.937 414.685 187.672V202.312H393.901C392.416 202.312 390.991 202.902 389.941 203.952C388.891 205.002 388.301 206.427 388.301 207.912V327.676C388.301 328.395 388.44 329.106 388.71 329.771C388.963 330.968 389.609 332.045 390.544 332.832C391.48 333.619 392.652 334.071 393.874 334.116L481.674 337.043C486.921 337.181 489.302 330.357 485.166 327.033Z" fill="#2F2E41"/>
<path d="M427.525 150.335C425.211 150.27 422.331 150.189 420.112 148.568C419.452 148.066 418.909 147.426 418.522 146.691C418.135 145.957 417.913 145.148 417.872 144.319C417.832 143.73 417.928 143.139 418.154 142.593C418.38 142.047 418.729 141.561 419.175 141.172C420.335 140.193 422.028 139.964 423.849 140.5L421.96 126.691L423.347 126.5L425.568 142.734L424.41 142.203C423.066 141.587 421.223 141.273 420.078 142.241C419.797 142.495 419.578 142.809 419.438 143.161C419.298 143.513 419.241 143.892 419.272 144.269C419.306 144.886 419.472 145.488 419.76 146.035C420.047 146.582 420.449 147.06 420.938 147.438C422.665 148.699 424.961 148.862 427.565 148.935L427.525 150.335Z" fill="#2F2E41"/>
<path d="M415.1 127.882H407.56V129.282H415.1V127.882Z" fill="#2F2E41"/>
<path d="M438.902 127.882H431.361V129.282H438.902V127.882Z" fill="#2F2E41"/>
<path d="M394.357 112.808C387.702 108.775 384.568 101.124 384.563 93.557C384.559 89.5238 385.435 85.5383 387.129 81.8781C388.823 78.2179 391.294 74.971 394.371 72.3636C401.226 66.4355 410.354 63.5344 419.271 62.7972C430.061 61.9053 440.78 64.2505 451.084 67.2438C462.118 70.4489 472.929 74.4816 484.223 76.7254C495.183 78.9029 506.172 79.1176 516.962 75.9688C526.921 73.0626 537.03 67.9272 547.667 68.8172C556.855 69.5859 563.832 75.7 568.526 83.2538C577.844 98.2508 578.58 118.38 591.981 130.868C597.775 136.268 605.323 138.714 612.867 140.542C620.101 142.295 627.818 143.418 634.457 146.966C641.575 150.771 645.884 157.921 644.771 166.115C643.506 175.421 636.884 183.43 629.593 188.897C621.918 194.579 613.073 198.478 603.7 200.31C594.328 202.142 584.665 201.86 575.415 199.485C556.072 194.354 540.353 179.362 519.744 178.423C508.248 177.899 496.928 181.031 485.433 180.512C477.466 180.152 468.891 177.206 463.342 171.282C460.678 168.51 459.014 164.929 458.612 161.105C458.487 159.771 456.385 159.758 456.512 161.105C457.3 169.476 463.461 175.658 470.814 179.057C474.684 180.833 478.816 181.97 483.05 182.426C488.675 183.047 494.41 182.459 500.01 181.845C505.929 181.196 511.857 180.397 517.824 180.469C523.271 180.555 528.668 181.515 533.811 183.312C543.685 186.698 552.58 192.317 562.014 196.693C571.143 200.929 580.704 203.555 590.816 203.62C600.563 203.669 610.205 201.601 619.075 197.56C627.809 193.581 636.017 187.641 641.456 179.634C646.555 172.127 649.232 162.278 644.643 153.874C641.047 147.286 634.187 143.953 627.271 141.901C619.605 139.626 611.592 138.587 604.087 135.754C600.165 134.344 596.556 132.18 593.466 129.383C590.151 126.166 587.42 122.397 585.394 118.245C581.098 109.864 578.902 100.658 575.284 92.0011C571.932 83.9818 567.346 75.899 559.958 70.9569C555.988 68.3304 551.374 66.8412 546.617 66.6506C541.355 66.4126 536.125 67.6206 531.123 69.143C525.83 70.754 520.665 72.7662 515.333 74.2489C509.715 75.813 503.892 76.5085 498.064 76.3113C486.078 75.9208 474.5 72.3603 463.153 68.7705C443.275 62.4819 421.168 55.7496 401.184 65.4433C393.397 69.2203 386.801 75.5574 384.02 83.8786C381.56 91.2415 381.9 99.83 385.693 106.69C387.491 109.953 390.113 112.687 393.297 114.621C394.456 115.323 395.513 113.508 394.357 112.808L394.357 112.808Z" fill="#2F2E41"/>
<path d="M452.276 300.026H441.944C440.737 300.024 439.581 299.545 438.728 298.692C437.875 297.839 437.395 296.682 437.394 295.476V235.795C437.395 234.589 437.875 233.432 438.728 232.579C439.581 231.726 440.737 231.247 441.944 231.245H452.276C453.482 231.247 454.639 231.726 455.492 232.579C456.345 233.432 456.825 234.589 456.826 235.795V295.476C456.825 296.682 456.345 297.839 455.492 298.692C454.639 299.545 453.482 300.024 452.276 300.026Z" fill="#6C63FF"/>
<path d="M412.395 103.538C412.625 105.184 413.31 106.732 414.373 108.008C415.437 109.285 416.835 110.239 418.412 110.763C419.988 111.287 421.68 111.361 423.295 110.975C424.911 110.589 426.387 109.759 427.556 108.579L425.801 108.116C426.78 110.62 428.421 112.812 430.549 114.457C432.677 116.101 435.212 117.137 437.882 117.453C440.553 117.769 443.259 117.353 445.712 116.251C448.164 115.149 450.272 113.401 451.808 111.194C452.599 110.095 450.778 109.045 449.995 110.134C448.671 111.988 446.873 113.453 444.79 114.377C442.707 115.301 440.414 115.65 438.151 115.387C435.887 115.124 433.735 114.259 431.92 112.882C430.104 111.505 428.69 109.666 427.826 107.558C427.774 107.383 427.677 107.226 427.546 107.099C427.416 106.973 427.254 106.882 427.078 106.835C426.902 106.789 426.717 106.788 426.541 106.834C426.365 106.879 426.203 106.969 426.071 107.094C425.16 108.015 424.006 108.658 422.744 108.947C421.482 109.237 420.163 109.162 418.942 108.731C417.72 108.3 416.647 107.53 415.846 106.512C415.046 105.494 414.551 104.269 414.42 102.98C414.233 101.648 412.209 102.215 412.395 103.539V103.538Z" fill="#2F2E41"/>
<path d="M346.198 252.633L345.979 252.781L341.913 246.785C341.604 246.329 341.209 245.938 340.749 245.635C340.289 245.333 339.774 245.123 339.233 245.02C338.692 244.916 338.136 244.919 337.597 245.03C337.058 245.142 336.545 245.358 336.09 245.667L323.384 254.28C322.928 254.589 322.538 254.985 322.235 255.445C321.932 255.905 321.723 256.42 321.619 256.96C321.515 257.501 321.519 258.057 321.63 258.596C321.741 259.136 321.957 259.648 322.266 260.104L344.57 293.003C344.879 293.459 345.275 293.85 345.735 294.153C346.195 294.455 346.71 294.665 347.25 294.768C347.791 294.872 348.347 294.869 348.886 294.757C349.426 294.646 349.938 294.43 350.394 294.121L363.099 285.508C363.555 285.199 363.945 284.803 364.248 284.343C364.551 283.883 364.76 283.368 364.864 282.828C364.968 282.287 364.964 281.731 364.853 281.192C364.742 280.652 364.526 280.14 364.217 279.684L348.873 257.05L349.092 256.902L346.198 252.633Z" fill="#3F3D56"/>
<path d="M337.05 247.224L335.445 248.312C335.642 248.443 335.803 248.62 335.915 248.828C336.027 249.036 336.086 249.269 336.087 249.505C336.088 249.741 336.031 249.974 335.92 250.183C335.81 250.392 335.65 250.57 335.455 250.703L328.41 255.479C328.214 255.611 327.989 255.694 327.754 255.719C327.52 255.744 327.282 255.711 327.063 255.622C326.844 255.534 326.65 255.393 326.499 255.212C326.347 255.031 326.242 254.816 326.193 254.585L324.693 255.601C324.364 255.825 324.082 256.111 323.863 256.443C323.644 256.776 323.493 257.148 323.418 257.539C323.343 257.93 323.345 258.332 323.426 258.721C323.506 259.111 323.662 259.482 323.885 259.811L345.441 291.608C345.665 291.937 345.951 292.22 346.283 292.438C346.616 292.657 346.988 292.809 347.379 292.884C347.77 292.959 348.172 292.956 348.562 292.876C348.951 292.795 349.322 292.639 349.651 292.416L362.008 284.039C362.673 283.588 363.132 282.891 363.283 282.101C363.435 281.312 363.267 280.495 362.816 279.829L341.26 248.032C341.036 247.703 340.75 247.421 340.418 247.202C340.085 246.983 339.713 246.832 339.322 246.756C338.931 246.681 338.529 246.684 338.139 246.764C337.75 246.845 337.379 247.001 337.05 247.224L337.05 247.224Z" fill="#FEFEFE"/>
</g>
<defs>
<clipPath id="clip0_197_2244">
<rect width="647" height="371.426" fill="white"/>
</clipPath>
</defs>
</svg>
