<svg width="1102" height="692" viewBox="0 0 1102 692" fill="none" xmlns="http://www.w3.org/2000/svg">
<g clip-path="url(#clip0_370_47056)">
<path d="M1101.25 284.091H1099.39V233.176C1099.39 229.306 1098.63 225.474 1097.15 221.898C1095.67 218.323 1093.5 215.075 1090.76 212.338C1088.02 209.602 1084.78 207.431 1081.2 205.95C1077.62 204.469 1073.79 203.707 1069.92 203.707H962.052C958.182 203.707 954.35 204.469 950.774 205.95C947.199 207.431 943.951 209.602 941.214 212.338C938.478 215.075 936.307 218.323 934.826 221.898C933.345 225.474 932.583 229.306 932.583 233.176V512.502C932.583 516.372 933.345 520.204 934.826 523.779C936.307 527.354 938.478 530.603 941.214 533.339C943.951 536.076 947.199 538.246 950.774 539.727C954.35 541.208 958.182 541.97 962.052 541.97H1069.92C1073.79 541.97 1077.62 541.208 1081.2 539.727C1084.78 538.246 1088.02 536.076 1090.76 533.339C1093.5 530.603 1095.67 527.354 1097.15 523.779C1098.63 520.204 1099.39 516.372 1099.39 512.502V320.334H1101.25V284.091Z" fill="#3F3D56"/>
<path d="M1093.12 234.907V513.827C1093.12 519.665 1090.8 525.263 1086.67 529.39C1082.55 533.518 1076.95 535.837 1071.11 535.837H962.721C959.831 535.837 956.969 535.267 954.3 534.161C951.63 533.055 949.205 531.433 947.162 529.389C945.119 527.345 943.498 524.919 942.393 522.249C941.288 519.579 940.72 516.717 940.721 513.827V234.907C940.721 229.072 943.039 223.477 947.164 219.351C951.29 215.225 956.886 212.907 962.721 212.907H975.871C975.225 214.495 974.98 216.216 975.156 217.921C975.332 219.625 975.924 221.26 976.88 222.682C977.836 224.104 979.126 225.27 980.638 226.076C982.15 226.883 983.837 227.305 985.551 227.307H1047.35C1049.07 227.31 1050.76 226.891 1052.27 226.086C1053.78 225.281 1055.08 224.115 1056.03 222.691C1056.99 221.268 1057.58 219.63 1057.76 217.924C1057.93 216.217 1057.68 214.494 1057.03 212.907H1071.11C1076.95 212.907 1082.54 215.224 1086.67 219.35C1090.8 223.476 1093.12 229.071 1093.12 234.907Z" fill="#D0CDE1"/>
<path d="M1072.6 355.707H946.601V389.707H1072.6V355.707Z" fill="#6C63FF"/>
<path d="M1077.6 383.707H955.601C954.805 383.706 954.043 383.39 953.48 382.827C952.918 382.265 952.601 381.502 952.601 380.707V350.707C952.601 349.912 952.918 349.149 953.48 348.587C954.043 348.024 954.805 347.708 955.601 347.707H1077.6C1078.4 347.708 1079.16 348.024 1079.72 348.587C1080.28 349.149 1080.6 349.912 1080.6 350.707V380.707C1080.6 381.502 1080.28 382.265 1079.72 382.827C1079.16 383.39 1078.4 383.706 1077.6 383.707ZM955.601 349.707C955.335 349.707 955.081 349.813 954.894 350C954.706 350.188 954.601 350.442 954.601 350.707V380.707C954.601 380.972 954.706 381.226 954.894 381.414C955.081 381.601 955.335 381.707 955.601 381.707H1077.6C1077.87 381.707 1078.12 381.601 1078.31 381.414C1078.49 381.226 1078.6 380.972 1078.6 380.707V350.707C1078.6 350.442 1078.49 350.188 1078.31 350C1078.12 349.813 1077.87 349.707 1077.6 349.707H955.601Z" fill="#3F3D56"/>
<path d="M976.601 374.707H960.601V376.707H976.601V374.707Z" fill="#3F3D56"/>
<path d="M998.601 374.707H982.601V376.707H998.601V374.707Z" fill="#3F3D56"/>
<path d="M1020.6 374.707H1004.6V376.707H1020.6V374.707Z" fill="#3F3D56"/>
<path d="M1042.6 374.707H1026.6V376.707H1042.6V374.707Z" fill="#3F3D56"/>
<path d="M1064.6 374.707H1048.6V376.707H1064.6V374.707Z" fill="#3F3D56"/>
<path opacity="0.1" d="M1093.12 485.467V513.827C1093.12 519.665 1090.8 525.263 1086.67 529.39C1082.55 533.518 1076.95 535.837 1071.11 535.837H962.721C959.831 535.837 956.969 535.267 954.3 534.161C951.63 533.055 949.205 531.433 947.162 529.389C945.119 527.345 943.498 524.919 942.393 522.249C941.288 519.579 940.72 516.717 940.721 513.827V383.367L1093.12 485.467Z" fill="black"/>
<path d="M573.601 459.707H100.601V691.707H573.601V459.707Z" fill="#D0CDE1"/>
<path opacity="0.1" d="M453.351 691.707H102.601C102.071 691.705 101.563 691.494 101.188 691.12C100.813 690.745 100.602 690.237 100.601 689.707V461.707C100.602 461.177 100.813 460.669 101.188 460.295C101.563 459.92 102.071 459.709 102.601 459.707H107.041L453.351 691.707Z" fill="black"/>
<path d="M1052.6 490.707H319.601V492.707H1052.6V490.707Z" fill="#3F3D56"/>
<path d="M551.343 4.31776H341.853V0H246.862V4.31776H36.5088C34.6479 4.31776 32.8052 4.68429 31.086 5.39642C29.3668 6.10854 27.8046 7.15233 26.4888 8.46817C25.1729 9.78401 24.1292 11.3461 23.417 13.0654C22.7049 14.7846 22.3384 16.6273 22.3384 18.4882V305.344C22.3384 309.102 23.8313 312.707 26.4888 315.364C29.1463 318.021 32.7506 319.514 36.5088 319.514H551.343C555.101 319.514 558.705 318.021 561.363 315.364C564.02 312.707 565.513 309.102 565.513 305.344V18.4882C565.513 16.6273 565.146 14.7846 564.434 13.0654C563.722 11.3461 562.678 9.78401 561.363 8.46817C560.047 7.15233 558.485 6.10854 556.765 5.39642C555.046 4.68429 553.203 4.31776 551.343 4.31776V4.31776Z" fill="#3F3D56"/>
<path d="M546.511 29.3564H41.3408V314.336H546.511V29.3564Z" fill="#D0CDE1"/>
<path d="M293.494 21.5892C296.355 21.5892 298.675 19.2694 298.675 16.4079C298.675 13.5463 296.355 11.2266 293.494 11.2266C290.632 11.2266 288.312 13.5463 288.312 16.4079C288.312 19.2694 290.632 21.5892 293.494 21.5892Z" fill="#6C63FF"/>
<path d="M191.601 135.707H179.601C178.805 135.706 178.043 135.39 177.48 134.827C176.918 134.265 176.601 133.502 176.601 132.707V120.707C176.601 119.912 176.918 119.149 177.48 118.587C178.043 118.024 178.805 117.708 179.601 117.707H191.601C192.396 117.708 193.159 118.024 193.721 118.587C194.283 119.149 194.6 119.912 194.601 120.707V132.707C194.6 133.502 194.283 134.265 193.721 134.827C193.159 135.39 192.396 135.706 191.601 135.707V135.707ZM179.601 119.707C179.335 119.707 179.081 119.813 178.894 120C178.706 120.188 178.601 120.442 178.601 120.707V132.707C178.601 132.972 178.706 133.226 178.894 133.414C179.081 133.601 179.335 133.707 179.601 133.707H191.601C191.866 133.707 192.12 133.601 192.307 133.414C192.495 133.226 192.6 132.972 192.601 132.707V120.707C192.6 120.442 192.495 120.188 192.307 120C192.12 119.813 191.866 119.707 191.601 119.707H179.601Z" fill="#3F3D56"/>
<path d="M405.601 133.707H177.601V135.707H405.601V133.707Z" fill="#3F3D56"/>
<path d="M399.601 188.707H346.601V204.707H399.601V188.707Z" fill="#6C63FF"/>
<path d="M403.601 200.707H354.601C353.805 200.706 353.043 200.39 352.48 199.827C351.918 199.265 351.601 198.502 351.601 197.707V185.707C351.601 184.912 351.918 184.149 352.48 183.587C353.043 183.024 353.805 182.708 354.601 182.707H403.601C404.396 182.708 405.159 183.024 405.721 183.587C406.283 184.149 406.6 184.912 406.601 185.707V197.707C406.6 198.502 406.283 199.265 405.721 199.827C405.159 200.39 404.396 200.706 403.601 200.707V200.707ZM354.601 184.707C354.335 184.707 354.081 184.813 353.894 185C353.706 185.188 353.601 185.442 353.601 185.707V197.707C353.601 197.972 353.706 198.226 353.894 198.414C354.081 198.601 354.335 198.707 354.601 198.707H403.601C403.866 198.707 404.12 198.601 404.307 198.414C404.495 198.226 404.6 197.972 404.601 197.707V185.707C404.6 185.442 404.495 185.188 404.307 185C404.12 184.813 403.866 184.707 403.601 184.707H354.601Z" fill="#3F3D56"/>
<path d="M804.601 206.707H704.601V276.707H804.601V206.707Z" fill="#6C63FF"/>
<path d="M814.601 271.207H718.601C717.54 271.206 716.523 270.784 715.773 270.034C715.023 269.284 714.602 268.268 714.601 267.207V201.207C714.602 200.147 715.023 199.13 715.773 198.38C716.523 197.63 717.54 197.208 718.601 197.207H814.601C815.661 197.208 816.678 197.63 817.428 198.38C818.178 199.13 818.599 200.147 818.601 201.207V267.207C818.599 268.268 818.178 269.284 817.428 270.034C816.678 270.784 815.661 271.206 814.601 271.207V271.207ZM718.601 201.207V267.207H814.603L814.601 201.207H718.601Z" fill="#3F3D56"/>
<path d="M803.601 198.707H799.601C799.601 189.955 796.124 181.561 789.935 175.372C783.746 169.184 775.353 165.707 766.601 165.707C757.848 165.707 749.455 169.184 743.266 175.372C737.077 181.561 733.601 189.955 733.601 198.707H729.601C729.601 188.894 733.499 179.483 740.438 172.544C747.376 165.605 756.788 161.707 766.601 161.707C776.414 161.707 785.825 165.605 792.764 172.544C799.702 179.483 803.601 188.894 803.601 198.707V198.707Z" fill="#3F3D56"/>
<path d="M776.601 226.207C776.603 224.466 776.15 222.754 775.288 221.241C774.425 219.729 773.182 218.467 771.682 217.583C770.183 216.698 768.478 216.22 766.736 216.196C764.995 216.173 763.278 216.604 761.755 217.448C760.232 218.292 758.955 219.519 758.052 221.007C757.148 222.496 756.649 224.195 756.604 225.936C756.559 227.676 756.969 229.399 757.794 230.932C758.619 232.466 759.83 233.758 761.307 234.68V245.413C761.307 246.108 761.444 246.797 761.71 247.439C761.976 248.081 762.366 248.665 762.858 249.156C763.349 249.648 763.933 250.038 764.575 250.304C765.217 250.57 765.906 250.707 766.601 250.707V250.707C768.005 250.707 769.352 250.149 770.345 249.156C771.337 248.164 771.895 246.817 771.895 245.413V234.68C773.334 233.783 774.522 232.535 775.345 231.053C776.169 229.57 776.601 227.903 776.601 226.207V226.207Z" fill="#3F3D56"/>
<path d="M301.101 562.707H285.101V564.707H301.101V562.707Z" fill="#3F3D56"/>
<path d="M323.101 562.707H307.101V564.707H323.101V562.707Z" fill="#3F3D56"/>
<path d="M345.101 562.707H329.101V564.707H345.101V562.707Z" fill="#3F3D56"/>
<path d="M367.101 562.707H351.101V564.707H367.101V562.707Z" fill="#3F3D56"/>
<path d="M389.101 562.707H373.101V564.707H389.101V562.707Z" fill="#3F3D56"/>
<path d="M594.601 674.707H125.601C124.541 674.706 123.524 674.284 122.774 673.534C122.024 672.784 121.602 671.768 121.601 670.707V442.707C121.602 441.647 122.024 440.63 122.774 439.88C123.524 439.13 124.541 438.708 125.601 438.707H594.601C595.661 438.708 596.678 439.13 597.428 439.88C598.178 440.63 598.6 441.646 598.601 442.707V670.707C598.6 671.768 598.178 672.784 597.428 673.534C596.678 674.284 595.661 674.706 594.601 674.707V674.707ZM125.601 442.707V670.707H594.604L594.601 442.707H125.601Z" fill="#3F3D56"/>
<path d="M146.601 476.707C149.914 476.707 152.601 474.021 152.601 470.707C152.601 467.393 149.914 464.707 146.601 464.707C143.287 464.707 140.601 467.393 140.601 470.707C140.601 474.021 143.287 476.707 146.601 476.707Z" fill="#3F3D56"/>
<path d="M167.601 476.707C170.914 476.707 173.601 474.021 173.601 470.707C173.601 467.393 170.914 464.707 167.601 464.707C164.287 464.707 161.601 467.393 161.601 470.707C161.601 474.021 164.287 476.707 167.601 476.707Z" fill="#3F3D56"/>
<path d="M188.601 476.707C191.914 476.707 194.601 474.021 194.601 470.707C194.601 467.393 191.914 464.707 188.601 464.707C185.287 464.707 182.601 467.393 182.601 470.707C182.601 474.021 185.287 476.707 188.601 476.707Z" fill="#3F3D56"/>
<path d="M404.601 576.707H269.601C268.805 576.706 268.043 576.39 267.48 575.827C266.918 575.265 266.601 574.502 266.601 573.707V539.707C266.601 538.912 266.918 538.149 267.48 537.587C268.043 537.024 268.805 536.708 269.601 536.707H404.601C405.396 536.708 406.159 537.024 406.721 537.587C407.283 538.149 407.6 538.912 407.601 539.707V573.707C407.6 574.502 407.283 575.265 406.721 575.827C406.159 576.39 405.396 576.706 404.601 576.707V576.707ZM269.601 538.707C269.335 538.707 269.081 538.813 268.894 539C268.706 539.188 268.601 539.442 268.601 539.707V573.707C268.601 573.972 268.706 574.226 268.894 574.414C269.081 574.601 269.335 574.707 269.601 574.707H404.601C404.866 574.707 405.12 574.601 405.307 574.414C405.495 574.226 405.6 573.972 405.601 573.707V539.707C405.6 539.442 405.495 539.188 405.307 539C405.12 538.813 404.866 538.707 404.601 538.707H269.601Z" fill="#3F3D56"/>
<path d="M438.601 577.707C448.542 577.707 456.601 569.648 456.601 559.707C456.601 549.766 448.542 541.707 438.601 541.707C428.659 541.707 420.601 549.766 420.601 559.707C420.601 569.648 428.659 577.707 438.601 577.707Z" fill="#6C63FF"/>
<path d="M444.601 575.707C440.843 575.707 437.169 574.593 434.045 572.505C430.92 570.417 428.485 567.45 427.047 563.978C425.609 560.506 425.233 556.686 425.966 553C426.699 549.315 428.508 545.929 431.166 543.272C433.823 540.615 437.208 538.805 440.894 538.072C444.58 537.339 448.4 537.715 451.872 539.153C455.343 540.591 458.311 543.027 460.399 546.151C462.486 549.276 463.601 552.949 463.601 556.707C463.595 561.744 461.591 566.574 458.029 570.136C454.467 573.698 449.638 575.701 444.601 575.707V575.707ZM444.601 539.707C441.238 539.707 437.952 540.704 435.156 542.572C432.36 544.44 430.181 547.095 428.895 550.201C427.608 553.308 427.271 556.726 427.927 560.024C428.583 563.321 430.202 566.35 432.58 568.728C434.957 571.105 437.986 572.724 441.284 573.38C444.582 574.036 448 573.7 451.106 572.413C454.213 571.126 456.868 568.947 458.736 566.152C460.604 563.356 461.601 560.069 461.601 556.707C461.596 552.2 459.803 547.879 456.616 544.692C453.429 541.505 449.108 539.712 444.601 539.707V539.707Z" fill="#3F3D56"/>
<path d="M444.868 563.803L435.187 554.121L438.015 551.293L444.334 557.611L461.966 532.555L465.237 534.858L444.868 563.803Z" fill="#3F3D56"/>
<path opacity="0.1" d="M434.51 314.337H41.3403V50.9473L434.51 314.337Z" fill="black"/>
<path d="M579.697 309.152H530.395V305.6C530.395 305.507 530.377 305.416 530.341 305.33C530.306 305.245 530.254 305.167 530.189 305.102C530.123 305.036 530.046 304.985 529.96 304.949C529.875 304.914 529.783 304.896 529.691 304.896H512.787C512.695 304.896 512.603 304.914 512.518 304.949C512.432 304.985 512.355 305.036 512.289 305.102C512.224 305.167 512.172 305.245 512.137 305.33C512.101 305.416 512.083 305.507 512.083 305.6V309.152H501.518V305.6C501.518 305.507 501.5 305.416 501.465 305.33C501.429 305.245 501.377 305.167 501.312 305.102C501.246 305.036 501.169 304.985 501.083 304.949C500.998 304.914 500.906 304.896 500.814 304.896H483.91C483.818 304.896 483.726 304.914 483.641 304.949C483.555 304.985 483.478 305.036 483.412 305.102C483.347 305.167 483.295 305.245 483.26 305.33C483.224 305.416 483.206 305.507 483.206 305.6V309.152H472.641V305.6C472.641 305.507 472.623 305.416 472.588 305.33C472.552 305.245 472.5 305.167 472.435 305.102C472.37 305.036 472.292 304.985 472.206 304.949C472.121 304.914 472.029 304.896 471.937 304.896H455.033C454.941 304.896 454.849 304.914 454.764 304.949C454.678 304.985 454.601 305.036 454.535 305.102C454.47 305.167 454.418 305.245 454.383 305.33C454.347 305.416 454.329 305.507 454.329 305.6V309.152H443.764V305.6C443.764 305.507 443.746 305.416 443.711 305.33C443.675 305.245 443.623 305.167 443.558 305.102C443.493 305.036 443.415 304.985 443.329 304.949C443.244 304.914 443.152 304.896 443.06 304.896H426.156C426.064 304.896 425.972 304.914 425.887 304.949C425.801 304.985 425.724 305.036 425.658 305.102C425.593 305.167 425.541 305.245 425.506 305.33C425.47 305.416 425.452 305.507 425.452 305.6V309.152H414.887V305.6C414.887 305.507 414.869 305.416 414.834 305.33C414.798 305.245 414.746 305.167 414.681 305.102C414.616 305.036 414.538 304.985 414.453 304.949C414.367 304.914 414.275 304.896 414.183 304.896H397.279C397.187 304.896 397.095 304.914 397.01 304.949C396.924 304.985 396.847 305.036 396.781 305.102C396.716 305.167 396.664 305.245 396.629 305.33C396.593 305.416 396.575 305.507 396.575 305.6V309.152H386.01V305.6C386.01 305.507 385.992 305.416 385.957 305.33C385.921 305.245 385.869 305.167 385.804 305.102C385.739 305.036 385.661 304.985 385.576 304.949C385.49 304.914 385.399 304.896 385.306 304.896H368.402C368.31 304.896 368.218 304.914 368.133 304.949C368.047 304.985 367.97 305.036 367.904 305.102C367.839 305.167 367.787 305.245 367.752 305.33C367.716 305.416 367.698 305.507 367.698 305.6V309.152H357.133V305.6C357.133 305.507 357.115 305.416 357.08 305.33C357.044 305.245 356.993 305.167 356.927 305.102C356.862 305.036 356.784 304.985 356.699 304.949C356.613 304.914 356.522 304.896 356.429 304.896H224.018C223.925 304.896 223.834 304.914 223.748 304.949C223.663 304.985 223.585 305.036 223.52 305.102C223.454 305.167 223.402 305.245 223.367 305.33C223.332 305.416 223.313 305.507 223.313 305.6V309.152H212.749V305.6C212.749 305.507 212.73 305.416 212.695 305.33C212.66 305.245 212.608 305.167 212.542 305.102C212.477 305.036 212.399 304.985 212.314 304.949C212.228 304.914 212.137 304.896 212.044 304.896H195.141C195.048 304.896 194.957 304.914 194.871 304.949C194.786 304.985 194.708 305.036 194.643 305.102C194.577 305.167 194.525 305.245 194.49 305.33C194.455 305.416 194.436 305.507 194.436 305.6V309.152H183.872V305.6C183.872 305.507 183.853 305.416 183.818 305.33C183.783 305.245 183.731 305.167 183.665 305.102C183.6 305.036 183.522 304.985 183.437 304.949C183.351 304.914 183.26 304.896 183.167 304.896H166.264C166.171 304.896 166.08 304.914 165.994 304.949C165.909 304.985 165.831 305.036 165.766 305.102C165.7 305.167 165.648 305.245 165.613 305.33C165.578 305.416 165.559 305.507 165.559 305.6V309.152H154.995V305.6C154.995 305.507 154.976 305.416 154.941 305.33C154.906 305.245 154.854 305.167 154.788 305.102C154.723 305.036 154.645 304.985 154.56 304.949C154.474 304.914 154.383 304.896 154.29 304.896H137.387C137.294 304.896 137.203 304.914 137.117 304.949C137.032 304.985 136.954 305.036 136.889 305.102C136.823 305.167 136.772 305.245 136.736 305.33C136.701 305.416 136.683 305.507 136.683 305.6V309.152H126.118V305.6C126.118 305.507 126.1 305.416 126.064 305.33C126.029 305.245 125.977 305.167 125.911 305.102C125.846 305.036 125.768 304.985 125.683 304.949C125.598 304.914 125.506 304.896 125.413 304.896H108.51C108.417 304.896 108.326 304.914 108.24 304.949C108.155 304.985 108.077 305.036 108.012 305.102C107.946 305.167 107.895 305.245 107.859 305.33C107.824 305.416 107.806 305.507 107.806 305.6V309.152H97.2408V305.6C97.2408 305.507 97.2226 305.416 97.1872 305.33C97.1518 305.245 97.0999 305.167 97.0345 305.102C96.9691 305.036 96.8915 304.985 96.806 304.949C96.7206 304.914 96.629 304.896 96.5365 304.896H79.6329C79.5404 304.896 79.4488 304.914 79.3634 304.949C79.2779 304.985 79.2003 305.036 79.1349 305.102C79.0695 305.167 79.0176 305.245 78.9822 305.33C78.9468 305.416 78.9286 305.507 78.9286 305.6V309.152H68.3638V305.6C68.3638 305.507 68.3456 305.416 68.3102 305.33C68.2748 305.245 68.223 305.167 68.1576 305.102C68.0922 305.036 68.0145 304.985 67.9291 304.949C67.8436 304.914 67.752 304.896 67.6595 304.896H50.7559C50.6635 304.896 50.5719 304.914 50.4864 304.949C50.401 304.985 50.3233 305.036 50.2579 305.102C50.1925 305.167 50.1406 305.245 50.1052 305.33C50.0698 305.416 50.0516 305.507 50.0516 305.6V309.152H17.6531C15.4333 309.152 13.2352 309.589 11.1844 310.439C9.13353 311.288 7.27009 312.533 5.70045 314.103C4.13081 315.673 2.8857 317.536 2.03622 319.587C1.18673 321.638 0.74951 323.836 0.749512 326.056V333.699C0.749522 338.182 2.53043 342.482 5.70047 345.652C8.87051 348.822 13.17 350.603 17.6531 350.603H579.697C581.917 350.603 584.115 350.165 586.166 349.316C588.217 348.466 590.08 347.221 591.65 345.652C593.219 344.082 594.465 342.219 595.314 340.168C596.164 338.117 596.601 335.919 596.601 333.699V326.056C596.601 323.836 596.164 321.638 595.314 319.587C594.465 317.536 593.219 315.673 591.65 314.103C590.08 312.533 588.217 311.288 586.166 310.439C584.115 309.589 581.917 309.152 579.697 309.152V309.152Z" fill="#3F3D56"/>
<path d="M425.601 217.707H161.601C160.805 217.706 160.043 217.39 159.48 216.827C158.918 216.265 158.601 215.502 158.601 214.707V104.707C158.601 103.912 158.918 103.149 159.48 102.587C160.043 102.024 160.805 101.708 161.601 101.707H425.601C426.396 101.708 427.159 102.024 427.721 102.587C428.283 103.149 428.6 103.912 428.601 104.707V214.707C428.6 215.502 428.283 216.265 427.721 216.827C427.159 217.39 426.396 217.706 425.601 217.707V217.707ZM161.601 103.707C161.335 103.707 161.081 103.813 160.894 104C160.706 104.188 160.601 104.442 160.601 104.707V214.707C160.601 214.972 160.706 215.226 160.894 215.414C161.081 215.601 161.335 215.707 161.601 215.707H425.601C425.866 215.707 426.12 215.601 426.307 215.414C426.495 215.226 426.6 214.972 426.601 214.707V104.707C426.6 104.442 426.495 104.188 426.307 104C426.12 103.813 425.866 103.707 425.601 103.707H161.601Z" fill="#3F3D56"/>
<path d="M191.601 165.707H179.601C178.805 165.706 178.043 165.39 177.48 164.827C176.918 164.265 176.601 163.502 176.601 162.707V150.707C176.601 149.912 176.918 149.149 177.48 148.587C178.043 148.024 178.805 147.708 179.601 147.707H191.601C192.396 147.708 193.159 148.024 193.721 148.587C194.283 149.149 194.6 149.912 194.601 150.707V162.707C194.6 163.502 194.283 164.265 193.721 164.827C193.159 165.39 192.396 165.706 191.601 165.707V165.707ZM179.601 149.707C179.335 149.707 179.081 149.813 178.894 150C178.706 150.188 178.601 150.442 178.601 150.707V162.707C178.601 162.972 178.706 163.226 178.894 163.414C179.081 163.601 179.335 163.707 179.601 163.707H191.601C191.866 163.707 192.12 163.601 192.307 163.414C192.495 163.226 192.6 162.972 192.601 162.707V150.707C192.6 150.442 192.495 150.188 192.307 150C192.12 149.813 191.866 149.707 191.601 149.707H179.601Z" fill="#3F3D56"/>
<path d="M405.601 163.707H177.601V165.707H405.601V163.707Z" fill="#3F3D56"/>
<path d="M998.6 269.707H265.601V271.707H998.6V269.707Z" fill="#3F3D56"/>
<path d="M265.601 283.707C273.333 283.707 279.601 277.439 279.601 269.707C279.601 261.975 273.333 255.707 265.601 255.707C257.869 255.707 251.601 261.975 251.601 269.707C251.601 277.439 257.869 283.707 265.601 283.707Z" fill="#3F3D56"/>
<path d="M998.601 282.707C1004.68 282.707 1009.6 277.782 1009.6 271.707C1009.6 265.632 1004.68 260.707 998.601 260.707C992.525 260.707 987.601 265.632 987.601 271.707C987.601 277.782 992.525 282.707 998.601 282.707Z" fill="#3F3D56"/>
<path d="M1052.6 503.707C1058.68 503.707 1063.6 498.782 1063.6 492.707C1063.6 486.632 1058.68 481.707 1052.6 481.707C1046.53 481.707 1041.6 486.632 1041.6 492.707C1041.6 498.782 1046.53 503.707 1052.6 503.707Z" fill="#3F3D56"/>
<path d="M322.601 503.707C328.676 503.707 333.601 498.782 333.601 492.707C333.601 486.632 328.676 481.707 322.601 481.707C316.525 481.707 311.601 486.632 311.601 492.707C311.601 498.782 316.525 503.707 322.601 503.707Z" fill="#3F3D56"/>
</g>
<defs>
<clipPath id="clip0_370_47056">
<rect width="1100.5" height="691.707" fill="white" transform="translate(0.749512)"/>
</clipPath>
</defs>
</svg>
