<svg width="24" height="24" viewBox="0 0 24 24" fill="none" xmlns="http://www.w3.org/2000/svg">
<g clip-path="url(#clip0_9_4438)">
<path d="M8.89993 6.07001L7.47993 4.66001L8.99993 3.00001H14.9999L16.8299 5.00001H19.9999C21.0999 5.00001 21.9999 5.90001 21.9999 7.00001V19C21.9999 19.05 21.9899 19.1 21.9799 19.16L19.9999 17.17V7.00001H15.9499L14.1199 5.00001H9.87993L8.89993 6.07001ZM20.4899 23.31L18.1699 21H3.99993C2.89993 21 1.99993 20.1 1.99993 19V7.00001C1.99993 6.41001 2.26993 5.88001 2.67993 5.51001L0.679932 3.51001L2.09993 2.10001L21.8999 21.9L20.4899 23.31ZM9.18993 12.02C9.07993 12.33 8.99993 12.65 8.99993 13C8.99993 14.66 10.3399 16 11.9999 16C12.3499 16 12.6699 15.92 12.9799 15.81L9.18993 12.02ZM16.1699 19L14.4899 17.32C13.7599 17.75 12.9099 18 11.9999 18C9.23993 18 6.99993 15.76 6.99993 13C6.99993 12.09 7.24993 11.24 7.67993 10.51L4.16993 7.00001H3.99993V19H16.1699ZM14.8099 11.98L16.8799 14.05C16.9599 13.71 16.9999 13.36 16.9999 13C16.9999 10.24 14.7599 8.00001 11.9999 8.00001C11.6399 8.00001 11.2899 8.04001 10.9399 8.12001L13.0099 10.19C13.8499 10.49 14.5099 11.15 14.8099 11.98Z" fill="#323232"/>
</g>
<defs>
<clipPath id="clip0_9_4438">
<rect width="24" height="24" fill="white"/>
</clipPath>
</defs>
</svg>
