<svg width="24" height="24" viewBox="0 0 24 24" fill="none" xmlns="http://www.w3.org/2000/svg">
<g clip-path="url(#clip0_9_4443)">
<path d="M7.99989 20C7.99989 21.1 7.09989 22 5.99989 22C4.89989 22 3.99989 21.1 3.99989 20C3.99989 18.9 4.89989 18 5.99989 18C7.09989 18 7.99989 18.9 7.99989 20ZM14.9999 8.66V12.17L16.9999 14.17V6.27C17.5799 5.59 17.9699 5 18.6499 5C19.4199 5 19.9999 5.66 19.9999 6.48V7H21.9999V6.48C21.9999 4.56 20.5199 3 18.6499 3C16.9899 3 16.1099 4.27 15.4699 5.03L11.9699 9.14L13.3899 10.56L14.9999 8.66ZM19.7799 22.61L17.8699 20.7C17.5799 21.46 16.8599 22 15.9999 22C14.8999 22 13.9999 21.1 13.9999 20C13.9999 19.14 14.5399 18.42 15.2999 18.13L14.1699 17H7.42989C6.57989 17 6.11989 16 6.66989 15.35L9.35989 12.19L1.38989 4.22L2.79989 2.81L10.6599 10.67L12.0799 12.09L21.1899 21.2L19.7799 22.61ZM12.1699 15L10.7799 13.61L9.59989 15H12.1699ZM9.99989 5C10.2899 5 10.5799 5.02 10.8599 5.05L9.48989 6.67L10.9099 8.09L14.2999 4.1C13.0299 3.4 11.5599 3 9.99989 3C8.76989 3 7.59989 3.25 6.52989 3.7L8.09989 5.27C8.70989 5.1 9.34989 5 9.99989 5Z" fill="#323232"/>
</g>
<defs>
<clipPath id="clip0_9_4443">
<rect width="24" height="24" fill="white"/>
</clipPath>
</defs>
</svg>
