<svg width="24" height="24" viewBox="0 0 24 24" fill="none" xmlns="http://www.w3.org/2000/svg">
<g clip-path="url(#clip0_9_4467)">
<path d="M20.5 13H22V16H20.5V13ZM18 13H19.5V16H18V13ZM17 13H14.66L17 15.34V13ZM14.5 8.65H16.03C17.08 8.65 18 9.39 18 10.7V12H19.5V10.36C19.5 8.55 17.9 7.2 16.03 7.2H14.5C13.48 7.2 12.65 6.22 12.65 5.2C12.65 4.18 13.48 3.45 14.5 3.45V1.95C12.65 1.95 11.15 3.45 11.15 5.3C11.15 7.15 12.65 8.65 14.5 8.65ZM18.85 4.73C19.47 4.12 19.85 3.28 19.85 2.35H18.35C18.35 3.37 17.52 4.2 16.5 4.2V5.7C18.74 5.7 20.5 7.53 20.5 9.77V12H22V9.76C22 7.54 20.72 5.62 18.85 4.73ZM3.41 4.59L2 6L9 13H2V16H12L19 23L20.41 21.59L3.41 4.59Z" fill="#323232"/>
</g>
<defs>
<clipPath id="clip0_9_4467">
<rect width="24" height="24" fill="white"/>
</clipPath>
</defs>
</svg>
