<svg width="24" height="24" viewBox="0 0 24 24" fill="none" xmlns="http://www.w3.org/2000/svg">
<g clip-path="url(#clip0_197_2557)">
<g clip-path="url(#clip1_197_2557)">
<path d="M13.6875 4.6875C13.6875 5.61949 12.932 6.375 12 6.375C11.068 6.375 10.3125 5.61949 10.3125 4.6875C10.3125 3.75551 11.068 3 12 3C12.932 3 13.6875 3.75551 13.6875 4.6875ZM12 17.625C11.068 17.625 10.3125 18.3805 10.3125 19.3125C10.3125 20.2445 11.068 21 12 21C12.932 21 13.6875 20.2445 13.6875 19.3125C13.6875 18.3805 12.932 17.625 12 17.625ZM19.3125 10.3125C18.3805 10.3125 17.625 11.068 17.625 12C17.625 12.932 18.3805 13.6875 19.3125 13.6875C20.2445 13.6875 21 12.932 21 12C21 11.068 20.2445 10.3125 19.3125 10.3125ZM6.375 12C6.375 11.068 5.61949 10.3125 4.6875 10.3125C3.75551 10.3125 3 11.068 3 12C3 12.932 3.75551 13.6875 4.6875 13.6875C5.61949 13.6875 6.375 12.932 6.375 12ZM6.82929 15.4832C5.8973 15.4832 5.14179 16.2387 5.14179 17.1707C5.14179 18.1027 5.8973 18.8582 6.82929 18.8582C7.76128 18.8582 8.51679 18.1027 8.51679 17.1707C8.51679 16.2388 7.76125 15.4832 6.82929 15.4832ZM17.1707 15.4832C16.2387 15.4832 15.4832 16.2387 15.4832 17.1707C15.4832 18.1027 16.2387 18.8582 17.1707 18.8582C18.1027 18.8582 18.8582 18.1027 18.8582 17.1707C18.8582 16.2388 18.1027 15.4832 17.1707 15.4832ZM6.82929 5.14179C5.8973 5.14179 5.14179 5.8973 5.14179 6.82929C5.14179 7.76128 5.8973 8.51679 6.82929 8.51679C7.76128 8.51679 8.51679 7.76128 8.51679 6.82929C8.51679 5.8973 7.76125 5.14179 6.82929 5.14179Z" fill="black"/>
</g>
</g>
<defs>
<clipPath id="clip0_197_2557">
<rect width="24" height="24" fill="white"/>
</clipPath>
<clipPath id="clip1_197_2557">
<rect width="18" height="18" fill="white" transform="translate(3 3)"/>
</clipPath>
</defs>
</svg>
