<svg width="622" height="413" viewBox="0 0 622 413" fill="none" xmlns="http://www.w3.org/2000/svg">
  <g clip-path="url(#clip0_586_43458)">
    <path d="M222.916 237.685C244.214 200.221 284.839 171.454 327.844 174.226C296.122 208.722 277.624 253.326 275.624 300.148C274.918 318.208 276.013 338.368 264.021 351.891C256.56 360.306 245.156 364.381 233.943 365.236C222.729 366.091 211.518 364.065 200.455 362.047L197.771 362.871C196.749 319.788 201.619 275.15 222.916 237.685Z" fill="#212021" />
    <path d="M327.908 175.127C296.106 190.437 268.989 216.005 252.343 247.188C248.744 253.929 245.68 261.081 244.343 268.643C243.006 276.209 243.94 283.41 246.524 290.596C248.886 297.165 252.064 303.61 252.788 310.639C253.551 318.048 250.825 324.975 245.919 330.473C239.915 337.2 231.852 341.368 223.826 345.171C214.914 349.392 205.59 353.636 199.278 361.516C198.514 362.47 197.077 361.228 197.841 360.274C208.823 346.566 227.621 343.989 240.656 332.946C246.739 327.793 251.306 320.776 251.017 312.554C250.765 305.364 247.495 298.714 245.045 292.083C242.474 285.121 241.191 278.121 242.113 270.698C243.057 263.105 245.848 255.818 249.258 249.014C256.95 233.669 267.477 219.582 279.536 207.404C293.395 193.406 309.547 181.882 327.292 173.33C328.391 172.801 328.999 174.602 327.908 175.127V175.127Z" fill="#FEFEFE" />
    <path d="M257.219 236.767C252.344 233.202 248.895 228.02 247.487 222.147C246.08 216.274 246.806 210.091 249.536 204.704C250.092 203.616 251.809 204.429 251.252 205.518C248.701 210.53 248.025 216.289 249.347 221.756C250.669 227.222 253.901 232.036 258.46 235.329C259.45 236.046 258.204 237.479 257.219 236.767V236.767Z" fill="#FEFEFE" />
    <path d="M244.888 287.423C257.104 285.638 268.199 279.314 275.96 269.712C276.728 268.76 278.165 270.002 277.398 270.953C269.303 280.93 257.744 287.488 245.027 289.317C243.815 289.491 243.682 287.595 244.888 287.423V287.423Z" fill="#FEFEFE" />
    <path d="M294.334 195.743C295.933 197.515 297.947 198.863 300.196 199.664C302.444 200.466 304.856 200.697 307.216 200.336C308.425 200.147 308.557 202.042 307.355 202.23C304.746 202.617 302.082 202.359 299.596 201.479C297.11 200.598 294.877 199.123 293.093 197.181C292.91 197.012 292.797 196.779 292.779 196.531C292.761 196.282 292.838 196.035 292.995 195.841C293.16 195.652 293.393 195.535 293.644 195.517C293.895 195.498 294.143 195.58 294.334 195.743Z" fill="#FEFEFE" />
    <path d="M413.411 292.412C412.659 292.552 411.908 292.691 411.149 292.845C401.051 294.771 391.126 297.515 381.472 301.048C380.722 301.31 379.965 301.586 379.223 301.868C356.056 310.629 334.717 323.615 316.29 340.167C308.964 346.759 302.149 353.9 295.906 361.527C287.285 372.06 278.776 384.166 267.51 391.034C266.343 391.764 265.131 392.421 263.883 393.001L198.984 366.081C198.867 365.946 198.744 365.826 198.626 365.69L195.986 364.734C196.28 364.318 196.595 363.893 196.889 363.477C197.059 363.235 197.243 362.999 197.413 362.757C197.531 362.598 197.65 362.439 197.747 362.288C197.786 362.235 197.826 362.182 197.858 362.144C197.956 361.993 198.062 361.864 198.153 361.728C199.904 359.348 201.674 356.976 203.465 354.612C203.471 354.597 203.471 354.597 203.491 354.588C217.179 336.611 232.487 319.619 249.888 305.491C250.411 305.066 250.94 304.626 251.494 304.214C259.373 297.889 267.755 292.218 276.558 287.259C281.386 284.559 286.349 282.105 291.426 279.907C304.554 274.253 318.491 270.698 332.724 269.374C361.099 266.74 390 273.209 411.762 291.034C412.318 291.49 412.861 291.941 413.411 292.412Z" fill="#212021" />
    <path d="M412.923 293.175C378.314 286.252 341.269 290.341 309.204 305.216C302.271 308.432 295.519 312.298 289.899 317.531C284.276 322.766 280.686 329.079 278.423 336.372C276.354 343.039 275.01 350.098 271.357 356.146C267.506 362.522 261.159 366.411 253.931 367.847C245.087 369.603 236.14 368.077 227.442 366.281C217.784 364.286 207.785 362.061 198.001 364.552C196.816 364.854 196.417 362.997 197.601 362.695C214.623 358.362 231.183 367.622 248.24 366.653C256.199 366.201 264.07 363.348 268.79 356.609C272.918 350.717 274.31 343.438 276.347 336.669C278.485 329.562 281.675 323.2 286.881 317.829C292.206 312.334 298.821 308.197 305.641 304.817C321.021 297.197 337.908 292.286 354.869 289.823C374.362 286.991 394.197 287.514 413.514 291.37C414.71 291.609 414.111 293.413 412.923 293.175V293.175Z" fill="#FEFEFE" />
    <path d="M319.371 299.831C317.625 294.049 317.991 287.835 320.403 282.298C322.815 276.762 327.117 272.262 332.541 269.605C333.64 269.071 334.521 270.754 333.421 271.288C328.366 273.754 324.359 277.945 322.123 283.106C319.887 288.266 319.57 294.056 321.228 299.43C321.587 300.598 319.728 300.993 319.371 299.831Z" fill="#FEFEFE" />
    <path d="M279.027 332.853C289.856 338.783 302.522 340.413 314.499 337.419C315.686 337.122 316.085 338.978 314.9 339.276C302.43 342.368 289.253 340.644 277.998 334.449C276.925 333.858 277.96 332.265 279.027 332.853V332.853Z" fill="#FEFEFE" />
    <path d="M373.704 289.422C373.914 291.8 374.711 294.088 376.023 296.082C377.336 298.076 379.123 299.712 381.224 300.844C382.304 301.422 381.267 303.014 380.195 302.441C377.879 301.179 375.907 299.369 374.452 297.169C372.997 294.97 372.103 292.447 371.848 289.822C371.803 289.577 371.853 289.324 371.988 289.114C372.123 288.905 372.333 288.754 372.575 288.694C372.821 288.642 373.078 288.689 373.289 288.826C373.501 288.962 373.65 289.176 373.704 289.422V289.422Z" fill="#FEFEFE" />
    <path d="M289.783 336.824C280.694 292.877 269.333 278.225 269.333 278.225L264.993 274.86L259.773 270.805L259.798 270.284L258.561 269.863L258.27 269.637L257.793 269.271L257.717 269.354L257.555 269.521L233.936 261.493L203.971 251.315L190.096 233.279C187.836 230.342 184.927 227.968 181.596 226.343C178.265 224.719 174.603 223.888 170.897 223.915L126.584 224.243C120.592 224.287 114.833 226.571 110.44 230.646L81.3137 257.663L35.9287 279.339L35.8521 279.262L35.3755 279.603L28.3631 282.956L28.6525 284.462L24.3122 287.594C24.3122 287.594 12.9511 301.227 3.86218 342.119C1.55006 352.523 0.411951 374.843 0.00115443 402.347C-0.0194799 403.738 0.236685 405.119 0.754749 406.411C1.27281 407.702 2.04244 408.878 3.01889 409.869C3.99533 410.86 5.15911 411.648 6.44255 412.185C7.72599 412.723 9.10349 413 10.495 413H252.905V413H283.161C284.552 413 285.928 412.723 287.211 412.186C288.493 411.649 289.657 410.863 290.633 409.872C291.609 408.882 292.379 407.708 292.898 406.418C293.417 405.128 293.674 403.748 293.655 402.357C293.254 372.429 292.116 348.107 289.783 336.824Z" fill="#3F3D56" />
    <path d="M320.886 38.3247C311.454 38.3247 302.409 42.0712 295.741 48.7401C289.072 55.4089 285.325 64.4538 285.325 73.885C285.325 83.3162 289.072 92.3611 295.741 99.03C302.409 105.699 311.454 109.445 320.886 109.445H585.895C595.326 109.445 604.371 105.699 611.039 99.03C617.708 92.3611 621.455 83.3162 621.455 73.885C621.455 64.4538 617.708 55.4089 611.039 48.7401C604.371 42.0712 595.326 38.3247 585.895 38.3247H320.886Z" fill="#2D2D2D" />
    <path d="M320.885 45.5215C313.363 45.5215 306.148 48.5098 300.829 53.829C295.51 59.1482 292.521 66.3626 292.521 73.8851C292.521 81.4076 295.51 88.622 300.829 93.9412C306.148 99.2604 313.363 102.249 320.885 102.249H585.894C593.417 102.249 600.631 99.2604 605.95 93.9412C611.269 88.622 614.258 81.4076 614.258 73.8851C614.258 66.3626 611.269 59.1482 605.95 53.829C600.631 48.5098 593.417 45.5215 585.894 45.5215H320.885Z" fill="#212021" />
    <path d="M155.699 207.267C187.762 207.267 213.755 181.275 213.755 149.212C213.755 117.148 187.762 91.1562 155.699 91.1562C123.636 91.1562 97.644 117.148 97.644 149.212C97.644 181.275 123.636 207.267 155.699 207.267Z" fill="#9E616A" />
    <path d="M140.847 204.424C140.599 203.878 140.352 203.33 140.105 202.781C140.201 202.784 140.295 202.797 140.39 202.8L140.847 204.424Z" fill="#2F2E41" />
    <path d="M96.0298 93.7962C98.9661 91.4539 102.398 89.2987 106.152 89.4198C109.906 89.5408 113.713 92.9315 112.935 96.6061C119.831 84.397 130.806 75.0068 143.936 70.0837C157.065 65.1606 171.508 65.0193 184.731 69.6845C194.062 72.9764 203.212 79.5621 205.355 89.2213C205.905 91.7008 206.024 94.4196 207.572 96.4331C209.524 98.9717 213.258 99.546 216.334 98.653C216.365 98.644 216.395 98.635 216.426 98.6258C216.945 98.4484 217.506 98.431 218.036 98.5758C218.565 98.7205 219.039 99.0209 219.396 99.4379C219.753 99.855 219.977 100.37 220.038 100.915C220.1 101.461 219.996 102.012 219.74 102.498L217.1 107.422C220.428 108.163 223.886 108.09 227.18 107.207C227.727 107.064 228.305 107.093 228.835 107.291C229.364 107.489 229.82 107.846 230.139 108.314C230.458 108.781 230.624 109.335 230.615 109.901C230.606 110.466 230.423 111.015 230.09 111.472C221.385 123.424 206.841 131.142 192 131.051C181.451 130.987 170.794 127.351 160.528 129.777C156.557 130.716 152.846 132.531 149.668 135.091C146.489 137.651 143.924 140.889 142.161 144.57C140.398 148.25 139.481 152.278 139.477 156.359C139.474 160.44 140.384 164.47 142.142 168.153C138.988 164.703 132.891 165.52 129.665 168.902C126.439 172.284 125.604 177.333 125.929 181.995C126.426 189.127 129.22 195.846 132.166 202.387C107.47 201.609 84.1115 184.285 76.2491 160.854C68.3536 137.325 76.6283 109.273 96.0298 93.7962Z" fill="#2F2E41" />
    <path opacity="0.2" d="M57.1411 323.555L73.4243 412.149L83.1946 413L57.1411 323.555Z" fill="black" />
    <path opacity="0.2" d="M236.504 316.874L220.221 412.086L210.451 413L236.504 316.874Z" fill="black" />
    <path d="M109.918 63.9803C106.796 65.284 103.538 63.8553 102.172 60.5834C100.785 57.2614 102.08 53.8892 105.253 52.5647C108.425 51.24 111.625 52.6722 113.034 56.0477C114.423 59.3726 113.141 62.6345 109.918 63.9803ZM103.938 46.026L101.455 47.0626C100.835 47.3184 100.141 47.3322 99.5116 47.1012C98.8817 46.8702 98.3616 46.4112 98.0539 45.8151L97.9312 45.5749C95.2601 40.7578 94.9543 34.9033 97.027 28.1831C98.9471 22.1548 99.7446 17.9151 98.1407 14.0741C96.2864 9.63331 92.3267 8.24221 87.2772 10.2574C85.3187 11.0751 84.6955 11.0621 83.1543 12.591C82.8191 12.9276 82.4195 13.1933 81.9794 13.3721C81.5392 13.551 81.0676 13.6394 80.5926 13.632C80.1334 13.6266 79.6799 13.5288 79.2593 13.3444C78.8388 13.16 78.4596 12.8927 78.1445 12.5586C77.5375 11.9148 77.1974 11.0645 77.1929 10.1796C77.1884 9.29475 77.5199 8.44113 78.1204 7.79118C80.711 5.07943 83.8354 2.9341 87.2967 1.49055C98.1459 -3.03972 103.608 3.64857 106.107 9.63395C108.551 15.4883 107.176 20.9202 104.967 27.9551C103.115 33.8006 103.223 38.1321 105.326 42.4389C105.478 42.7645 105.563 43.1174 105.575 43.4765C105.587 43.8355 105.526 44.1933 105.396 44.5284C105.267 44.8634 105.071 45.1688 104.82 45.4261C104.569 45.6835 104.269 45.8875 103.938 46.026L103.938 46.026Z" fill="#A32A29" />
    <path d="M379.423 90.8452H326.696C326.528 90.8464 326.362 90.8144 326.207 90.751C326.052 90.6877 325.911 90.5944 325.792 90.4763C325.673 90.3583 325.579 90.2179 325.514 90.0632C325.45 89.9086 325.417 89.7427 325.417 89.5752C325.417 89.4077 325.45 89.2418 325.514 89.0872C325.579 88.9325 325.673 88.7922 325.792 88.6741C325.911 88.5561 326.052 88.4627 326.207 88.3994C326.362 88.3361 326.528 88.3041 326.696 88.3052H379.423C379.758 88.3075 380.079 88.4423 380.315 88.6802C380.551 88.9181 380.684 89.2399 380.684 89.5752C380.684 89.9105 380.551 90.2323 380.315 90.4702C380.079 90.7081 379.758 90.8429 379.423 90.8452Z" fill="#A32A29" />
    <path d="M446.31 91.2681H393.583C393.416 91.2692 393.25 91.2372 393.095 91.1739C392.94 91.1106 392.799 91.0172 392.68 90.8992C392.561 90.7811 392.467 90.6407 392.402 90.4861C392.338 90.3314 392.305 90.1656 392.305 89.9981C392.305 89.8306 392.338 89.6647 392.402 89.51C392.467 89.3554 392.561 89.215 392.68 89.097C392.799 88.9789 392.94 88.8856 393.095 88.8222C393.25 88.7589 393.416 88.7269 393.583 88.7281H446.31C446.478 88.7269 446.644 88.7589 446.799 88.8222C446.954 88.8856 447.095 88.9789 447.214 89.097C447.333 89.215 447.427 89.3554 447.492 89.51C447.556 89.6647 447.589 89.8306 447.589 89.9981C447.589 90.1656 447.556 90.3314 447.492 90.4861C447.427 90.6407 447.333 90.7811 447.214 90.8992C447.095 91.0172 446.954 91.1106 446.799 91.1739C446.644 91.2372 446.478 91.2692 446.31 91.2681V91.2681Z" fill="#A32A29" />
    <path d="M513.197 91.6919H460.47C460.135 91.6896 459.814 91.5548 459.577 91.3169C459.341 91.079 459.208 90.7572 459.208 90.4219C459.208 90.0865 459.341 89.7648 459.577 89.5269C459.814 89.289 460.135 89.1542 460.47 89.1519H513.197C513.364 89.1507 513.53 89.1828 513.686 89.2461C513.841 89.3094 513.982 89.4027 514.1 89.5208C514.219 89.6388 514.314 89.7792 514.378 89.9339C514.442 90.0885 514.476 90.2544 514.476 90.4219C514.476 90.5894 514.442 90.7553 514.378 90.9099C514.314 91.0646 514.219 91.205 514.1 91.323C513.982 91.441 513.841 91.5344 513.686 91.5977C513.53 91.661 513.364 91.693 513.197 91.6919H513.197Z" fill="#A32A29" />
    <path d="M580.084 92.1147H527.357C527.022 92.1124 526.701 91.9776 526.465 91.7397C526.228 91.5018 526.096 91.18 526.096 90.8447C526.096 90.5094 526.228 90.1876 526.465 89.9497C526.701 89.7118 527.022 89.577 527.357 89.5747H580.084C580.419 89.577 580.74 89.7118 580.977 89.9497C581.213 90.1876 581.345 90.5094 581.345 90.8447C581.345 91.18 581.213 91.5018 580.977 91.7397C580.74 91.9776 580.419 92.1124 580.084 92.1147Z" fill="#A32A29" />
    <path d="M352.943 79.157C358.355 79.157 362.742 74.7695 362.742 69.3573C362.742 63.9451 358.355 59.5576 352.943 59.5576C347.531 59.5576 343.143 63.9451 343.143 69.3573C343.143 74.7695 347.531 79.157 352.943 79.157Z" fill="#A32A29" />
    <path d="M420.234 79.157C425.646 79.157 430.034 74.7695 430.034 69.3573C430.034 63.9451 425.646 59.5576 420.234 59.5576C414.822 59.5576 410.435 63.9451 410.435 69.3573C410.435 74.7695 414.822 79.157 420.234 79.157Z" fill="#A32A29" />
    <path d="M487.525 79.157C492.938 79.157 497.325 74.7695 497.325 69.3573C497.325 63.9451 492.938 59.5576 487.525 59.5576C482.113 59.5576 477.726 63.9451 477.726 69.3573C477.726 74.7695 482.113 79.157 487.525 79.157Z" fill="#A32A29" />
    <path d="M554.817 79.157C560.229 79.157 564.616 74.7695 564.616 69.3573C564.616 63.9451 560.229 59.5576 554.817 59.5576C549.405 59.5576 545.017 63.9451 545.017 69.3573C545.017 74.7695 549.405 79.157 554.817 79.157Z" fill="#A32A29" />
  </g>
  <defs>
    <clipPath id="clip0_586_43458">
      <rect width="621.455" height="413" fill="white" />
    </clipPath>
  </defs>
</svg>