<svg width="862" height="572" viewBox="0 0 862 572" fill="none" xmlns="http://www.w3.org/2000/svg">
<g clip-path="url(#clip0_370_46972)">
<path d="M436.67 160.527C429.001 147.843 419.913 134.3 405.68 130.158C389.198 125.361 372.267 134.89 357.906 144.292C314.956 172.412 273.595 202.887 234.012 235.575L234.056 236.068C264.873 233.943 295.69 231.817 326.507 229.692C348.772 228.157 371.802 226.41 391.478 215.877C398.945 211.88 406.223 206.541 414.684 206.169C425.196 205.707 434.361 213.048 441.564 220.718C484.172 266.089 496.501 335.472 544.302 375.334C514.16 300.999 478.17 229.171 436.67 160.527V160.527Z" fill="#F2F2F2"/>
<path d="M698.571 545.355C693.859 539.405 691.934 538.012 687.287 532.007C649.444 483.063 613.874 432.466 580.579 380.215C557.963 344.728 536.469 308.56 516.096 271.711C506.397 254.192 496.964 236.536 487.796 218.742C480.683 204.945 473.728 191.066 466.932 177.104C464.988 173.116 463.1 169.11 461.22 165.095C456.793 155.652 452.447 146.164 447.781 136.85C442.464 126.235 435.992 115.105 426.228 107.973C421.785 104.594 416.472 102.55 410.91 102.079C402.962 101.565 395.628 104.847 388.734 108.432C338.296 134.733 291.075 167.708 248.365 205.229C205.545 242.835 167.271 285.321 134.323 331.821C133.315 333.26 130.931 331.885 131.949 330.437C135.955 324.771 140.04 319.167 144.205 313.624C195.994 244.746 259.495 185.515 331.805 138.638C343.971 130.754 356.365 123.24 368.988 116.095C375.35 112.493 381.74 108.936 388.239 105.599C394.611 102.326 401.376 99.3835 408.655 99.2735C433.425 98.8885 446.25 126.94 455.06 145.816C457.828 151.756 460.631 157.678 463.466 163.582C474.183 185.996 485.312 208.206 496.853 230.21C503.977 243.796 511.255 257.303 518.69 270.73C541.828 312.542 566.421 353.508 592.469 393.627C626.975 446.77 661.205 493.715 700.515 543.411C701.597 544.787 699.662 546.748 698.571 545.355Z" fill="#E4E4E4"/>
<path d="M245.916 191.378C244.477 189.774 243.047 188.17 241.599 186.565C230.176 173.933 217.92 161.447 202.234 154.205C194.755 150.643 186.591 148.75 178.307 148.659C169.745 148.686 161.376 150.932 153.464 154.076C149.724 155.571 146.066 157.267 142.464 159.073C138.347 161.144 134.304 163.354 130.28 165.581C122.726 169.762 115.27 174.125 107.912 178.672C93.2716 187.72 79.0897 197.459 65.3663 207.889C58.2523 213.297 51.285 218.883 44.4646 224.646C38.1209 230 31.9055 235.497 25.8184 241.138C24.5167 242.339 22.5731 240.396 23.8748 239.195C25.4791 237.701 27.1018 236.216 28.7244 234.749C33.308 230.605 37.9651 226.541 42.6956 222.556C51.3217 215.277 60.1712 208.28 69.2441 201.563C83.3527 191.112 97.947 181.371 113.027 172.338C120.563 167.827 128.202 163.507 135.945 159.375C138.283 158.128 140.648 156.909 143.041 155.754C148.47 153.016 154.111 150.719 159.909 148.888C168.122 146.231 176.812 145.377 185.385 146.385C193.662 147.589 201.638 150.348 208.89 154.516C224.291 163.125 236.236 176.435 247.86 189.426C249.034 190.746 247.099 192.698 245.916 191.378Z" fill="#E4E4E4"/>
<path d="M561.477 322.285L598.382 308.787L616.705 302.085C622.672 299.902 628.626 297.417 634.795 295.854C640.156 294.323 645.848 294.396 651.168 296.063C655.913 297.819 660.256 300.511 663.939 303.98C667.702 307.445 671.203 311.184 674.414 315.166C678.403 319.96 682.334 324.805 686.282 329.633C702.576 349.56 718.764 369.574 734.845 389.675C750.926 409.774 766.899 429.96 782.765 450.231C798.669 470.551 814.464 490.956 830.15 511.446C832.072 513.956 833.992 516.468 835.91 518.98C836.97 520.369 839.359 519 838.285 517.592C822.483 496.896 806.571 476.285 790.55 455.758C774.488 435.182 758.316 414.693 742.033 394.292C725.75 373.891 709.357 353.578 692.855 333.354C688.743 328.316 684.625 323.283 680.5 318.256C677.021 314.015 673.58 309.729 669.764 305.782C662.758 298.536 654.006 292.134 643.53 291.96C637.37 291.858 631.408 293.812 625.685 295.883C619.516 298.115 613.361 300.388 607.199 302.642L570.036 316.235L560.746 319.633C559.097 320.236 559.809 322.895 561.477 322.285L561.477 322.285Z" fill="#E4E4E4"/>
<path d="M197.378 170.1C178.624 160.462 154.606 162.35 137.373 174.392C170.245 180.063 202.757 187.651 234.743 197.117C221.461 189.334 211.07 177.138 197.378 170.1Z" fill="#F2F2F2"/>
<path d="M137.188 174.358L133.578 177.293C134.799 176.266 136.068 175.303 137.373 174.392C137.311 174.381 137.25 174.369 137.188 174.358Z" fill="#F2F2F2"/>
<path d="M662.55 322.42C658.917 317.998 654.989 313.367 649.555 311.571L644.482 311.771C683.1 380.01 735.256 439.637 797.75 486.992C752.683 432.135 707.616 377.277 662.55 322.42Z" fill="#F2F2F2"/>
<path d="M347.084 285.94C349.432 294.47 354.721 301.894 362.015 306.899C364.836 308.819 368.172 310.661 369.137 313.934C369.645 316.02 369.332 318.221 368.263 320.084C367.197 321.922 365.899 323.616 364.402 325.125L364.265 325.637C357.267 321.49 350.609 316.244 346.743 309.086C342.877 301.928 342.338 292.547 347.084 285.94" fill="#F2F2F2"/>
<path d="M580.084 488.94C582.432 497.47 587.721 504.894 595.015 509.899C597.836 511.819 601.172 513.661 602.137 516.934C602.645 519.02 602.332 521.221 601.263 523.084C600.197 524.922 598.899 526.616 597.402 528.125L597.265 528.637C590.267 524.49 583.609 519.244 579.743 512.086C575.877 504.928 575.338 495.547 580.084 488.94" fill="#F2F2F2"/>
<path d="M115.084 474.94C117.432 483.47 122.721 490.894 130.015 495.899C132.836 497.819 136.172 499.661 137.137 502.934C137.644 505.02 137.332 507.221 136.263 509.084C135.197 510.922 133.899 512.616 132.402 514.125L132.265 514.637C125.267 510.49 118.609 505.244 114.743 498.086C110.877 490.928 110.338 481.547 115.084 474.94" fill="#F2F2F2"/>
<path d="M650.184 102C678.35 102 701.184 79.1665 701.184 51C701.184 22.8335 678.35 0 650.184 0C622.017 0 599.184 22.8335 599.184 51C599.184 79.1665 622.017 102 650.184 102Z" fill="#6C63FF"/>
<path d="M742.219 11.8707C717.502 8.52973 689.284 21.8894 682.878 45.9942C681.263 41.7084 678.328 38.0467 674.496 35.5382C670.665 33.0298 666.135 31.8044 661.561 32.0391C656.987 32.2738 652.606 33.9564 649.051 36.8439C645.496 39.7315 642.951 43.6743 641.784 48.1029L644.614 50.1296C697.581 61.5839 752.411 61.336 805.273 49.4032C788.08 31.3343 766.936 15.2116 742.219 11.8707Z" fill="#F0F0F0"/>
<path d="M636.219 79.8707C611.502 76.5297 583.284 89.8894 576.878 113.994C575.263 109.708 572.328 106.047 568.496 103.538C564.665 101.03 560.135 99.8044 555.561 100.039C550.987 100.274 546.606 101.956 543.051 104.844C539.496 107.731 536.951 111.674 535.784 116.103L538.614 118.13C591.581 129.584 646.411 129.336 699.273 117.403C682.08 99.3343 660.936 83.2116 636.219 79.8707Z" fill="#F0F0F0"/>
<path d="M851.946 92.7278C851.843 92.728 851.742 92.7122 851.644 92.6809C587.237 9.06277 354.2 19.9973 205.264 43.8948C184.996 47.1458 164.673 50.9006 144.86 55.0559C139.802 56.1155 134.555 57.2512 129.264 58.4338C122.945 59.8411 116.71 61.2903 110.731 62.7395C108.149 63.3509 105.618 63.9671 103.137 64.5882C99.3784 65.5159 95.565 66.4827 91.4771 67.5451C86.9092 68.7229 82.2681 69.9582 77.6797 71.217C77.6629 71.2229 77.6458 71.2278 77.6284 71.2317L77.6289 71.2327C72.4463 72.6477 67.291 74.1038 62.3057 75.5579C59.6074 76.3372 57.002 77.1057 54.5064 77.8645C54.2276 77.9417 53.9805 78.0159 53.73 78.0921L53.1939 78.2551C52.8833 78.3499 52.5767 78.4426 52.27 78.5305L52.2505 78.5364L52.251 78.5374L51.4395 78.7894C50.4717 79.0824 49.5273 79.3685 48.5986 79.6536C24.0537 87.2201 10.5606 92.6029 10.4273 92.6556C10.3054 92.7045 10.175 92.7288 10.0437 92.7273C9.91241 92.7258 9.78267 92.6984 9.66193 92.6468C9.54119 92.5952 9.43179 92.5203 9.34 92.4263C9.24821 92.3324 9.17582 92.2213 9.12696 92.0994C9.0781 91.9775 9.05374 91.8472 9.05524 91.7159C9.05675 91.5846 9.0841 91.4549 9.13575 91.3341C9.18739 91.2134 9.2623 91.104 9.35622 91.0122C9.45014 90.9204 9.56121 90.848 9.68311 90.7991C9.81739 90.7464 23.3765 85.3363 48.0108 77.7415C48.9429 77.4554 49.8897 77.1693 50.8604 76.8753L51.6143 76.6409C51.6401 76.6312 51.666 76.6234 51.6924 76.6156C51.9976 76.5286 52.3023 76.4359 52.6118 76.3421L53.1489 76.179C53.4165 76.098 53.6802 76.0179 53.9502 75.9437C56.4287 75.1898 59.043 74.4193 61.7481 73.637C66.7354 72.182 71.8955 70.7259 77.0821 69.3089C77.0982 69.3031 77.1148 69.2991 77.1309 69.2943V69.2933C81.7354 68.0306 86.3936 66.7903 90.9761 65.6087C95.0703 64.5452 98.8911 63.5765 102.656 62.6468C105.147 62.0267 107.684 61.4092 110.265 60.7943C116.251 59.3431 122.498 57.8919 128.828 56.4818C134.127 55.2982 139.384 54.1595 144.45 53.0989C164.293 48.9368 184.648 45.1761 204.947 41.9202C354.096 17.9886 587.468 7.03638 852.247 90.7747C852.474 90.8465 852.669 90.9975 852.795 91.2003C852.921 91.403 852.97 91.6442 852.934 91.8802C852.897 92.1162 852.778 92.3314 852.597 92.4868C852.415 92.6423 852.185 92.7278 851.946 92.7278V92.7278Z" fill="#CCCCCC"/>
<path d="M263.923 419.84C263.577 418.827 262.994 417.912 262.223 417.17C261.939 416.906 261.631 416.668 261.303 416.46C258.693 414.72 254.793 414.33 252.313 416.46C252.063 416.676 251.833 416.914 251.623 417.17C250.883 418.08 250.123 418.97 249.343 419.84C248.063 421.3 246.753 422.71 245.383 424.08C244.993 424.46 244.603 424.85 244.203 425.23C243.973 425.46 243.743 425.68 243.513 425.9C242.633 426.74 241.733 427.55 240.823 428.35C240.343 428.78 239.863 429.2 239.373 429.61C238.643 430.22 237.913 430.83 237.173 431.42C237.103 431.47 237.033 431.52 236.963 431.58C236.943 431.59 236.933 431.61 236.913 431.62C236.903 431.62 236.893 431.62 236.883 431.64C236.856 431.65 236.832 431.668 236.813 431.69C236.593 431.84 236.443 431.94 236.333 432.03C236.373 432.01 236.413 431.98 236.453 431.96C236.273 432.1 236.083 432.24 235.903 432.38C234.153 433.67 232.363 434.91 230.533 436.07C226.006 438.967 221.25 441.493 216.313 443.62C215.983 443.75 215.643 443.89 215.303 444.02C202.378 449.315 188.357 451.381 174.453 450.04C173.033 449.93 171.613 449.78 170.193 449.59C168.553 449.35 166.923 449.06 165.303 448.73C159.136 447.499 153.101 445.677 147.283 443.29C140.005 439.957 133.083 435.896 126.623 431.17C125.623 430.46 124.613 429.75 123.603 429.06C124.753 426.24 125.883 423.42 126.983 420.58C127.533 419.21 128.063 417.84 128.583 416.46C132.673 405.83 136.513 395.1 140.193 384.33C143.913 373.42 147.423 362.446 150.723 351.41C151.063 350.29 151.393 349.17 151.713 348.05C153.443 342.22 155.103 336.376 156.693 330.52C156.843 329.95 157.003 329.39 157.143 328.82C157.603 327.14 158.053 325.46 158.493 323.78C159.493 319.99 157.233 315.46 153.253 314.55C151.337 314.058 149.305 314.33 147.585 315.308C145.865 316.285 144.592 317.892 144.033 319.79C143.603 321.41 143.173 323.02 142.733 324.64C140.623 332.47 138.403 340.273 136.073 348.05C135.733 349.17 135.393 350.29 135.053 351.41C129.913 368.35 124.27 385.12 118.123 401.72C117.383 403.73 116.633 405.733 115.873 407.73C115.503 408.71 115.133 409.69 114.753 410.67C114.023 412.6 113.273 414.53 112.523 416.46C112.093 417.59 111.653 418.72 111.213 419.84C110.923 420.55 110.643 421.26 110.363 421.96C107.512 420.936 104.558 420.225 101.553 419.84L101.073 419.78C98.7436 419.499 96.3876 419.52 94.0631 419.84C90.5842 420.246 87.2369 421.411 84.2579 423.253C81.2788 425.095 78.7408 427.569 76.8232 430.5C72.0532 438.01 72.1131 448.75 78.8031 455.13C85.6931 461.7 96.1232 461.65 104.233 457.54C108.531 455.215 112.155 451.818 114.753 447.68C115.749 446.18 116.663 444.627 117.493 443.03C117.703 443.17 117.913 443.31 118.123 443.46C118.923 444.02 119.723 444.59 120.513 445.15C125.116 448.484 129.967 451.463 135.023 454.06C145.895 459.465 157.598 463.004 169.643 464.53C169.913 464.56 170.173 464.6 170.443 464.63C171.773 464.8 173.113 464.93 174.453 465.04C193.675 466.488 212.921 462.555 230.033 453.68C231.483 452.93 232.92 452.143 234.343 451.32C236.553 450.04 238.713 448.68 240.823 447.24C241.973 446.46 243.093 445.67 244.203 444.84C249.054 441.267 253.575 437.268 257.713 432.89C259.283 431.24 260.786 429.536 262.223 427.78C263.582 426.343 264.365 424.456 264.423 422.48C264.415 421.577 264.246 420.683 263.923 419.84V419.84ZM98.3332 443.66C98.5432 443.51 98.7532 443.35 98.9532 443.19C98.8932 443.34 98.6032 443.51 98.3332 443.66H98.3332ZM101.543 440.43C101.313 440.69 101.103 440.95 100.873 441.21C100.173 441.993 99.4217 442.728 98.6231 443.41C98.5131 443.51 98.3932 443.61 98.2732 443.7C98.2718 443.7 98.2705 443.7 98.2693 443.7C98.2681 443.701 98.267 443.702 98.266 443.703C98.2651 443.704 98.2643 443.705 98.2639 443.706C98.2634 443.707 98.2631 443.708 98.2632 443.71C98.1187 443.774 97.9784 443.848 97.8431 443.93C97.4131 444.19 96.9731 444.43 96.5232 444.65C95.6421 444.974 94.7357 445.225 93.8132 445.4C93.1043 445.451 92.3929 445.458 91.6832 445.42H91.6631C91.1734 445.311 90.6894 445.178 90.2132 445.02C89.9732 444.9 89.7432 444.76 89.5132 444.62C89.4232 444.54 89.3431 444.46 89.2932 444.41C89.1955 444.321 89.1052 444.224 89.0232 444.12C89.0233 444.118 89.023 444.117 89.0225 444.116C89.022 444.115 89.0213 444.114 89.0204 444.113C89.0194 444.112 89.0183 444.111 89.0171 444.11C89.0158 444.11 89.0145 444.11 89.0132 444.11C88.9032 443.91 88.7832 443.71 88.6732 443.51C88.6675 443.505 88.6639 443.497 88.6632 443.49C88.5832 443.24 88.5132 442.98 88.4532 442.72C88.4315 442.263 88.4348 441.806 88.4632 441.35C88.5974 440.711 88.7779 440.083 89.0032 439.47C89.2057 439.035 89.4362 438.614 89.6932 438.21C89.7132 438.17 89.8132 438.01 89.9232 437.83C89.9332 437.82 89.9332 437.82 89.9332 437.81C90.0832 437.64 90.2332 437.46 90.3932 437.3C90.6632 437 90.9532 436.74 91.2432 436.47C91.8072 436.101 92.3915 435.763 92.9932 435.46C93.9479 435.121 94.9275 434.857 95.9232 434.67C97.3915 434.553 98.8673 434.566 100.333 434.71C101.722 434.951 103.092 435.288 104.433 435.72C103.62 437.298 102.694 438.815 101.663 440.26C101.623 440.32 101.583 440.38 101.543 440.43V440.43ZM90.4232 437.14C90.3351 437.281 90.2311 437.412 90.1132 437.53C90.1925 437.382 90.2975 437.25 90.4232 437.14V437.14Z" fill="#3F3D56"/>
<path d="M233.863 317.71C233.773 320.85 233.683 323.99 233.593 327.13C233.403 334.1 233.207 341.073 233.003 348.05C232.793 355.9 232.573 363.747 232.343 371.59C232.233 375.64 232.12 379.69 232.003 383.74C231.693 394.65 231.387 405.557 231.083 416.46C231.053 417.59 231.013 418.71 230.983 419.84C230.833 425.25 230.683 430.66 230.533 436.07C230.363 441.94 230.197 447.81 230.033 453.68C229.913 458.08 229.79 462.483 229.663 466.89C228.763 498.82 227.863 530.75 226.963 562.68C226.925 564.657 226.123 566.543 224.725 567.941C223.326 569.34 221.441 570.142 219.463 570.18C217.479 570.164 215.581 569.369 214.178 567.966C212.775 566.563 211.979 564.664 211.963 562.68C212.463 544.72 212.97 526.76 213.483 508.8C213.933 492.56 214.39 476.32 214.853 460.08C215.003 454.73 215.153 449.377 215.303 444.02C215.533 435.96 215.76 427.9 215.983 419.84C216.013 418.71 216.053 417.59 216.083 416.46C216.103 415.47 216.133 414.49 216.163 413.5C216.603 397.85 217.043 382.197 217.483 366.54C217.663 360.38 217.837 354.217 218.003 348.05C218.203 341.02 218.403 333.993 218.603 326.97C218.693 323.88 218.773 320.8 218.863 317.71C218.901 315.733 219.704 313.847 221.102 312.449C222.501 311.05 224.386 310.248 226.363 310.21C228.348 310.226 230.246 311.021 231.649 312.424C233.052 313.827 233.847 315.726 233.863 317.71V317.71Z" fill="#3F3D56"/>
<path d="M645.292 319.792C637.427 349.571 628.027 378.924 617.13 407.733C614.123 415.679 611.047 423.61 607.759 431.445L608.515 429.653C607.047 433.385 605.173 436.944 602.925 440.265C602.773 440.479 602.617 440.691 602.459 440.901C603.236 439.908 603.383 439.712 602.901 440.312C602.647 440.613 602.396 440.915 602.134 441.208C601.434 441.991 600.683 442.727 599.885 443.411C599.684 443.583 599.48 443.751 599.273 443.915L600.211 443.186C600.102 443.443 599.338 443.784 599.1 443.929C598.33 444.394 597.526 444.801 596.695 445.148L598.487 444.392C597.126 444.94 595.706 445.33 594.256 445.552L596.25 445.285C594.825 445.481 593.381 445.497 591.952 445.331L593.945 445.598C592.776 445.437 591.632 445.129 590.541 444.681L592.332 445.437C591.75 445.184 591.188 444.884 590.653 444.541C590.382 444.364 589.548 443.733 590.638 444.566C591.772 445.432 590.784 444.64 590.551 444.41C590.357 444.218 590.181 444.01 589.991 443.815C589.109 442.911 590.987 445.372 590.388 444.314C590.068 443.783 589.774 443.237 589.51 442.677L590.266 444.469C589.922 443.616 589.677 442.726 589.538 441.817L589.806 443.811C589.663 442.681 589.662 441.537 589.803 440.406L589.535 442.4C589.718 441.138 590.052 439.902 590.529 438.72L589.773 440.511C590.106 439.716 590.5 438.948 590.951 438.213C591.159 437.833 591.403 437.474 591.68 437.141C591.729 437.157 590.411 438.654 591.111 437.898C591.293 437.701 591.465 437.493 591.65 437.296C591.946 436.983 592.263 436.696 592.575 436.399C593.62 435.404 591.113 437.365 592.319 436.578C593.192 436.003 594.112 435.502 595.068 435.078L593.276 435.834C594.877 435.177 596.556 434.727 598.271 434.495L596.278 434.762C598.426 434.515 600.597 434.541 602.738 434.839L600.745 434.571C603.457 434.982 606.107 435.728 608.636 436.791L606.845 436.035C612.234 438.349 617.008 441.784 621.773 445.153C626.375 448.486 631.224 451.463 636.279 454.059C647.151 459.465 658.855 463.006 670.901 464.533C688.177 466.649 705.707 464.393 721.884 457.972C738.061 451.551 752.366 441.169 763.487 427.781C764.844 426.342 765.625 424.455 765.683 422.478C765.669 420.492 764.881 418.589 763.487 417.175C760.735 414.649 755.537 413.936 752.88 417.175C750.362 420.249 747.654 423.164 744.773 425.902C743.429 427.178 742.048 428.414 740.631 429.611C739.822 430.295 739.002 430.966 738.17 431.623C737.777 431.933 736.552 432.761 738.433 431.425C738.002 431.731 737.588 432.066 737.163 432.38C730.865 437.023 724.04 440.905 716.831 443.945L718.622 443.189C710.886 446.434 702.761 448.66 694.451 449.811L696.445 449.543C687.896 450.668 679.236 450.655 670.691 449.505L672.685 449.773C664.142 448.6 655.786 446.324 647.828 443.003L649.62 443.759C641.94 440.361 634.652 436.139 627.883 431.168C624.361 428.559 620.646 426.221 616.77 424.174C612.255 421.868 607.367 420.382 602.332 419.785C592.894 418.674 583.275 422.351 578.086 430.505C573.311 438.01 573.372 448.749 580.06 455.131C586.948 461.703 597.378 461.647 605.495 457.536C613.313 453.577 618.008 445.351 621.31 437.594C628.741 420.139 635.321 402.281 641.45 384.331C647.515 366.573 653.014 348.636 657.949 330.518C658.56 328.274 659.162 326.028 659.756 323.779C660.757 319.991 658.495 315.459 654.517 314.554C652.6 314.06 650.567 314.331 648.846 315.308C647.124 316.285 645.85 317.893 645.291 319.792L645.292 319.792Z" fill="#3F3D56"/>
<path d="M720.124 317.71L717.425 413.503L714.739 508.797L713.221 562.681C713.238 564.665 714.033 566.563 715.436 567.966C716.839 569.368 718.737 570.164 720.721 570.181C722.698 570.143 724.583 569.34 725.982 567.942C727.38 566.544 728.182 564.658 728.221 562.681L730.92 466.888L733.606 371.594L735.124 317.71C735.107 315.726 734.312 313.828 732.909 312.425C731.506 311.022 729.608 310.227 727.624 310.21C725.647 310.248 723.762 311.051 722.363 312.449C720.965 313.847 720.162 315.733 720.124 317.71V317.71Z" fill="#3F3D56"/>
<path opacity="0.2" d="M460.526 535.935H462.855V429.893H517.184V427.57H462.855V382.826H504.811C504.196 382.043 503.563 381.271 502.912 380.509H462.855V350.956C462.085 350.627 461.308 350.311 460.526 350.012V380.509H414.874V342.644C414.092 342.679 413.322 342.733 412.545 342.799V380.509H376.125V352.258C375.343 352.604 374.573 352.968 373.808 353.35V380.509H343.192V382.826H373.808V427.57H343.192V429.893H373.808V535.935H376.125V429.893C380.908 429.892 385.645 430.833 390.064 432.663C394.483 434.493 398.498 437.176 401.88 440.558C405.262 443.94 407.945 447.955 409.775 452.375C411.605 456.794 412.546 461.53 412.545 466.313V535.935H414.874V429.893H460.526V535.935ZM376.125 427.57V382.826H412.545V427.57H376.125ZM414.874 427.57V382.826H415.788C421.663 382.826 427.481 383.984 432.909 386.233C438.337 388.481 443.269 391.777 447.424 395.932C451.578 400.087 454.873 405.02 457.122 410.448C459.37 415.876 460.527 421.695 460.526 427.57H414.874Z" fill="black"/>
<path d="M446.303 504.14C443.372 517.219 436.348 529.023 426.253 537.84C425.513 538.48 424.773 539.1 424.003 539.71C422.133 539.88 420.277 540.053 418.433 540.23C416.903 540.37 415.393 540.52 413.893 540.66L413.623 540.69L413.433 539.05L412.673 532.41C409.725 527.597 407.898 522.182 407.326 516.566C406.755 510.95 407.455 505.278 409.373 499.97C412.013 492.85 416.793 486.56 421.493 480.32C427.983 471.7 434.293 463.18 434.523 452.67C437.717 456.757 440.372 461.237 442.423 466C440.488 466.911 438.748 468.192 437.303 469.77C436.893 470.22 436.483 470.85 436.763 471.39C437.003 471.85 437.603 471.96 438.123 472.02C439.373 472.15 440.633 472.28 441.883 472.41C442.883 472.52 443.883 472.62 444.883 472.73C446.093 476.701 446.914 480.78 447.333 484.91C448.007 491.334 447.66 497.824 446.303 504.14V504.14Z" fill="#3F3D56"/>
<path d="M479.503 477.93C473.603 482.22 470.153 488.39 467.473 495.19C464.726 496.069 462.256 497.647 460.303 499.77C459.893 500.22 459.483 500.85 459.763 501.39C460.003 501.85 460.603 501.96 461.123 502.02C462.373 502.15 463.633 502.28 464.883 502.41C462.203 510.45 459.743 518.77 455.003 525.56C451.851 530.043 447.742 533.769 442.973 536.47C441.673 537.211 440.331 537.875 438.953 538.46C433.873 538.85 428.89 539.267 424.003 539.71C422.133 539.88 420.277 540.053 418.433 540.23C416.903 540.37 415.393 540.52 413.893 540.66C413.883 540.11 413.883 539.56 413.893 539.01C414.21 524.359 419.599 510.271 429.143 499.15C429.593 498.63 430.053 498.12 430.523 497.61C435.358 492.446 441.044 488.15 447.333 484.91C457.243 479.757 468.349 477.348 479.503 477.93V477.93Z" fill="#6C63FF"/>
<path d="M420.163 535.1L419.013 538.5L418.433 540.23C416.903 540.37 415.393 540.52 413.893 540.66L413.623 540.69C411.963 540.86 410.313 541.03 408.663 541.2C408.233 540.7 407.803 540.19 407.383 539.67C396.945 527.03 391.935 510.772 393.447 494.45C394.959 478.127 402.871 463.067 415.453 452.56C414.133 459.47 415.673 466.09 418.203 472.66C417.933 472.77 417.673 472.88 417.423 473C415.488 473.911 413.748 475.191 412.303 476.769C411.893 477.219 411.483 477.85 411.763 478.39C412.003 478.85 412.603 478.96 413.123 479.019C414.373 479.149 415.633 479.279 416.883 479.409C417.883 479.519 418.883 479.619 419.883 479.729C420.353 479.779 420.823 479.83 421.293 479.88C421.363 480.03 421.423 480.17 421.493 480.32C424.343 486.5 427.413 492.709 429.143 499.149C429.577 500.765 429.918 502.405 430.163 504.06C430.933 509.652 430.434 515.346 428.703 520.72C426.972 526.093 424.053 531.008 420.163 535.1V535.1Z" fill="#6C63FF"/>
<path d="M520.822 390.061C512.213 373.269 498.876 359.14 483.189 348.757C467.453 338.389 449.396 332.075 430.627 330.377C428.167 330.154 425.7 330.023 423.228 329.984C420.306 329.941 376.362 342.616 361.641 352.967C346.928 363.191 334.825 376.731 326.308 392.494C317.806 408.343 313.624 426.15 314.182 444.127C314.911 462.212 319.952 479.861 328.885 495.603C337.696 511.294 350.207 524.594 365.329 534.349C380.667 544.135 396.074 570.084 414.184 571C432.429 571.923 453.238 547.445 469.879 540.013C486.52 532.519 500.906 520.795 511.604 506.008C522 491.518 528.725 474.721 531.203 457.06C533.777 438.977 532.577 420.328 526.402 403.044C524.817 398.603 522.954 394.267 520.822 390.061C519.042 386.556 513.826 385.265 510.56 387.37C508.878 388.406 507.66 390.051 507.159 391.962C506.657 393.873 506.912 395.903 507.87 397.632C508.915 399.69 509.887 401.783 510.785 403.909L510.029 402.118C513.429 410.293 515.741 418.879 516.905 427.656L516.637 425.662C517.876 435.184 517.854 444.828 516.571 454.345L516.839 452.351C515.543 461.866 513.003 471.17 509.285 480.025L510.041 478.233C508.128 482.751 505.899 487.128 503.369 491.332C502.087 493.455 500.727 495.529 499.289 497.553C498.657 498.441 498.006 499.314 497.35 500.184C496.493 501.32 498.516 498.701 497.632 499.815C497.481 500.005 497.331 500.195 497.18 500.384C496.726 500.952 496.265 501.515 495.798 502.072C492.68 505.792 489.278 509.263 485.622 512.456C484.711 513.25 483.785 514.027 482.844 514.787C482.375 515.165 481.912 515.559 481.423 515.911C481.442 515.898 483.003 514.712 482.079 515.4C481.788 515.617 481.5 515.837 481.209 516.052C479.269 517.489 477.278 518.853 475.235 520.144C470.531 523.107 465.597 525.687 460.479 527.857L462.271 527.101C453.443 530.818 444.164 533.357 434.674 534.653L436.668 534.385C427.182 535.667 417.569 535.684 408.079 534.436L410.073 534.703C401.447 533.545 393.011 531.264 384.977 527.919L386.769 528.675C382.116 526.71 377.629 524.372 373.353 521.684C371.237 520.351 369.175 518.935 367.169 517.437C366.883 517.223 366.599 517.006 366.314 516.791C365.399 516.1 366.972 517.301 366.984 517.309C366.452 516.927 365.94 516.518 365.449 516.084C364.48 515.295 363.527 514.488 362.588 513.662C358.832 510.355 355.325 506.775 352.095 502.953C351.286 501.997 350.495 501.027 349.721 500.042C349.386 499.616 348.774 498.752 350.125 500.571C349.947 500.332 349.763 500.097 349.583 499.859C349.152 499.287 348.727 498.712 348.308 498.131C346.839 496.099 345.443 494.017 344.12 491.885C341.13 487.06 338.52 482.008 336.314 476.777L337.071 478.569C333.462 469.982 330.994 460.96 329.73 451.732L329.998 453.725C328.858 445.219 328.842 436.6 329.95 428.09L329.682 430.083C330.818 421.842 333.035 413.786 336.276 406.124L335.52 407.916C337.56 403.119 339.965 398.487 342.715 394.06C344.092 391.844 345.552 389.683 347.093 387.575C347.443 387.096 347.797 386.62 348.156 386.147C348.48 385.719 349.371 384.654 347.85 386.535C347.999 386.351 348.143 386.161 348.29 385.975C349.135 384.903 350.002 383.848 350.889 382.81C354.247 378.879 357.884 375.196 361.772 371.789C362.755 370.928 363.753 370.085 364.767 369.26C365.228 368.885 365.691 368.515 366.158 368.147C366.345 368.001 366.534 367.857 366.72 367.709C364.722 369.298 366.165 368.141 366.618 367.802C368.707 366.236 370.853 364.749 373.053 363.34C377.946 360.211 383.093 357.499 388.44 355.232L386.648 355.989C394.408 352.73 428.789 345.039 435.042 345.879L433.049 345.611C442.239 346.894 451.223 349.376 459.768 352.993L457.977 352.237C462.308 354.076 466.516 356.19 470.577 358.566C472.606 359.756 474.595 361.01 476.544 362.329C477.467 362.953 478.379 363.592 479.283 364.244C479.734 364.57 480.183 364.9 480.629 365.233C480.877 365.418 481.123 365.605 481.37 365.791C482.409 366.57 479.939 364.663 481.028 365.524C484.674 368.389 488.137 371.479 491.396 374.777C492.997 376.407 494.542 378.089 496.033 379.823C496.797 380.712 497.546 381.615 498.279 382.53C498.644 382.985 499.884 384.631 498.364 382.615C498.735 383.108 499.111 383.597 499.478 384.094C502.638 388.371 505.444 392.899 507.87 397.632C509.663 401.129 514.856 402.434 518.131 400.322C519.814 399.287 521.033 397.642 521.534 395.731C522.035 393.82 521.78 391.789 520.822 390.061Z" fill="#3F3D56"/>
<path d="M433.431 512.456C432.657 512.491 431.891 512.288 431.236 511.874C430.581 511.459 430.07 510.853 429.771 510.138C429.472 509.423 429.4 508.634 429.564 507.876C429.729 507.119 430.123 506.431 430.692 505.905C430.787 505.526 430.856 505.254 430.951 504.875C430.917 504.792 430.883 504.71 430.848 504.628C427.368 496.33 405.163 519.461 404.203 527.259C403.78 530.707 403.959 534.201 404.73 537.587C397.538 521.897 393.803 504.844 393.779 487.584C393.777 483.253 394.018 478.925 394.499 474.621C394.897 471.092 395.45 467.589 396.156 464.11C400.011 445.237 408.288 427.547 420.308 412.494C427.181 412.878 433.206 411.83 433.787 398.509C433.891 396.139 435.648 394.087 436.036 391.753C435.38 391.839 434.713 391.892 434.056 391.935C433.852 391.946 433.637 391.957 433.432 391.968L433.355 391.971C432.634 392.004 431.919 391.827 431.296 391.462C430.673 391.097 430.168 390.56 429.843 389.916C429.518 389.271 429.387 388.546 429.464 387.828C429.541 387.111 429.825 386.431 430.28 385.87C430.563 385.521 430.846 385.173 431.13 384.825C431.56 384.287 432.002 383.759 432.432 383.222C432.482 383.17 432.528 383.117 432.572 383.06C433.067 382.447 433.561 381.844 434.056 381.231C433.153 379.829 431.938 378.655 430.506 377.8C425.547 374.895 418.705 376.907 415.122 381.393C411.529 385.879 410.852 392.172 412.099 397.777C413.327 402.546 415.357 407.072 418.102 411.16C417.833 411.504 417.554 411.838 417.285 412.182C412.368 418.504 408.083 425.292 404.491 432.45C405.507 424.511 393.079 395.842 388.273 389.769C382.5 382.475 370.662 385.659 369.645 394.905C369.635 394.995 369.626 395.084 369.616 395.174C370.33 395.576 371.029 396.004 371.713 396.456C372.572 397.03 373.237 397.85 373.622 398.808C374.007 399.767 374.094 400.819 373.87 401.828C373.647 402.837 373.124 403.754 372.37 404.46C371.616 405.167 370.667 405.629 369.646 405.786L369.541 405.802C359.985 419.446 390.619 454.957 398.286 446.984C394.677 457.212 392.413 467.865 391.552 478.677C391.064 485.055 391.093 491.463 391.638 497.836L391.606 497.611C389.902 483.728 360.674 463.088 352.139 464.807C347.222 465.798 342.38 465.572 343.126 470.532C343.138 470.611 343.15 470.69 343.163 470.77C344.487 471.309 345.777 471.931 347.025 472.631C347.739 473.033 348.437 473.461 349.121 473.913C349.98 474.487 350.646 475.307 351.031 476.265C351.415 477.224 351.502 478.277 351.278 479.285C351.055 480.294 350.532 481.211 349.778 481.918C349.024 482.624 348.075 483.086 347.054 483.243L346.949 483.259C346.874 483.27 346.809 483.281 346.734 483.292C342.385 498.258 374.642 522.412 394.252 514.726H394.263C396.206 523.171 399.022 531.392 402.665 539.254H432.679C432.787 538.921 432.884 538.577 432.981 538.243C430.202 538.418 427.413 538.252 424.675 537.748C426.902 535.016 429.129 532.262 431.356 529.529C431.406 529.478 431.452 529.424 431.496 529.368C432.625 527.969 433.766 526.582 434.895 525.183L434.896 525.181C434.956 520.895 434.464 516.618 433.432 512.457L433.431 512.456ZM399.061 444.843L399.077 444.822L399.061 444.864V444.843ZM392.412 504.775L392.154 504.194C392.165 503.775 392.165 503.355 392.154 502.925C392.154 502.807 392.133 502.688 392.133 502.57C392.229 503.312 392.316 504.055 392.423 504.797L392.412 504.775Z" fill="#3F3D56"/>
<path d="M96.1836 450C102.259 450 107.184 445.075 107.184 439C107.184 432.925 102.259 428 96.1836 428C90.1085 428 85.1836 432.925 85.1836 439C85.1836 445.075 90.1085 450 96.1836 450Z" fill="#3F3D56"/>
<path d="M228.184 570C234.259 570 239.184 565.075 239.184 559C239.184 552.925 234.259 548 228.184 548C222.108 548 217.184 552.925 217.184 559C217.184 565.075 222.108 570 228.184 570Z" fill="#3F3D56"/>
<path d="M729.184 570C735.259 570 740.184 565.075 740.184 559C740.184 552.925 735.259 548 729.184 548C723.108 548 718.184 552.925 718.184 559C718.184 565.075 723.108 570 729.184 570Z" fill="#3F3D56"/>
<path d="M756.184 430C762.259 430 767.184 425.075 767.184 419C767.184 412.925 762.259 408 756.184 408C750.108 408 745.184 412.925 745.184 419C745.184 425.075 750.108 430 756.184 430Z" fill="#3F3D56"/>
<path d="M724.184 328C730.259 328 735.184 323.075 735.184 317C735.184 310.925 730.259 306 724.184 306C718.108 306 713.184 310.925 713.184 317C713.184 323.075 718.108 328 724.184 328Z" fill="#3F3D56"/>
<path d="M265.183 419C265.177 421.81 264.09 424.51 262.148 426.541C260.207 428.572 257.558 429.778 254.752 429.911C251.945 430.044 249.195 429.093 247.07 427.254C244.945 425.416 243.608 422.831 243.337 420.034C243.065 417.237 243.878 414.443 245.609 412.23C247.34 410.016 249.856 408.553 252.635 408.143C255.415 407.732 258.246 408.407 260.543 410.025C262.839 411.644 264.425 414.084 264.973 416.84C265.114 417.551 265.185 418.275 265.183 419V419Z" fill="#3F3D56"/>
<path d="M485.184 360C491.259 360 496.184 355.075 496.184 349C496.184 342.925 491.259 338 485.184 338C479.108 338 474.184 342.925 474.184 349C474.184 355.075 479.108 360 485.184 360Z" fill="#3F3D56"/>
<path d="M376.183 349C376.177 351.81 375.09 354.51 373.148 356.541C371.207 358.572 368.558 359.778 365.752 359.911C362.945 360.044 360.195 359.093 358.07 357.254C355.945 355.416 354.608 352.831 354.337 350.034C354.065 347.237 354.878 344.443 356.609 342.23C358.34 340.016 360.856 338.553 363.635 338.143C366.415 337.732 369.246 338.407 371.543 340.025C373.839 341.644 375.425 344.084 375.973 346.84C376.114 347.551 376.185 348.275 376.183 349V349Z" fill="#3F3D56"/>
<path d="M234.183 317C234.177 319.81 233.09 322.51 231.148 324.541C229.207 326.572 226.558 327.778 223.752 327.911C220.945 328.044 218.195 327.093 216.07 325.254C213.945 323.416 212.608 320.831 212.337 318.034C212.065 315.237 212.878 312.443 214.609 310.23C216.34 308.016 218.856 306.553 221.635 306.143C224.415 305.732 227.246 306.407 229.543 308.025C231.839 309.644 233.425 312.084 233.973 314.84C234.114 315.551 234.185 316.275 234.183 317V317Z" fill="#3F3D56"/>
<path d="M600.184 454C606.259 454 611.184 449.075 611.184 443C611.184 436.925 606.259 432 600.184 432C594.108 432 589.184 436.925 589.184 443C589.184 449.075 594.108 454 600.184 454Z" fill="#3F3D56"/>
<path d="M427.184 354C436.02 354 443.184 346.837 443.184 338C443.184 329.163 436.02 322 427.184 322C418.347 322 411.184 329.163 411.184 338C411.184 346.837 418.347 354 427.184 354Z" fill="#3F3D56"/>
<path d="M859.875 570.84L2.12524 571.148C1.96888 571.148 1.81405 571.117 1.66959 571.057C1.52513 570.997 1.39387 570.909 1.28331 570.799C1.17275 570.688 1.08503 570.557 1.02519 570.413C0.965355 570.268 0.93457 570.113 0.93457 569.957C0.93457 569.801 0.965355 569.646 1.02519 569.501C1.08503 569.357 1.17275 569.226 1.28331 569.115C1.39387 569.004 1.52513 568.917 1.66959 568.857C1.81405 568.797 1.96888 568.766 2.12524 568.766L859.875 568.459C860.19 568.46 860.492 568.586 860.715 568.809C860.938 569.032 861.062 569.334 861.062 569.65C861.062 569.965 860.938 570.267 860.715 570.49C860.492 570.714 860.19 570.839 859.875 570.84V570.84Z" fill="#CACACA"/>
</g>
<defs>
<clipPath id="clip0_370_46972">
<rect width="860.131" height="571.148" fill="white" transform="translate(0.93457)"/>
</clipPath>
</defs>
</svg>
